ISO-10303-21;
HEADER;
/* Generated by software containing ST-Developer
 * from STEP Tools, Inc. (www.steptools.com) 
 */

FILE_DESCRIPTION(
/* description */ (''),
/* implementation_level */ '2;1');

FILE_NAME(
/* name */ 'atappfixmm1.step',
/* time_stamp */ '2026-08-04T01:13:26+08:00',
/* author */ (''),
/* organization */ (''),
/* preprocessor_version */ 'ST-DEVELOPER v20.1',
/* originating_system */ 'Autodesk Translation Framework v15.8.0.0',
/* authorisation */ '');

FILE_SCHEMA (('AUTOMOTIVE_DESIGN { 1 0 10303 214 3 1 1 }'));
ENDSEC;

DATA;
#10=MECHANICAL_DESIGN_GEOMETRIC_PRESENTATION_REPRESENTATION('',(#13),#1577);
#11=SHAPE_REPRESENTATION_RELATIONSHIP('SRR','None',#1584,#12);
#12=ADVANCED_BREP_SHAPE_REPRESENTATION('',(#14),#1576);
#13=STYLED_ITEM('',(#1593),#14);
#14=MANIFOLD_SOLID_BREP('Body1',#985);
#15=FACE_BOUND('',#112,.T.);
#16=CIRCLE('',#1018,0.15);
#17=CIRCLE('',#1019,0.15);
#18=CIRCLE('',#1023,0.15);
#19=CIRCLE('',#1039,0.15);
#20=CYLINDRICAL_SURFACE('',#1017,0.15);
#21=CYLINDRICAL_SURFACE('',#1038,0.15);
#22=FACE_OUTER_BOUND('',#73,.T.);
#23=FACE_OUTER_BOUND('',#74,.T.);
#24=FACE_OUTER_BOUND('',#75,.T.);
#25=FACE_OUTER_BOUND('',#76,.T.);
#26=FACE_OUTER_BOUND('',#77,.T.);
#27=FACE_OUTER_BOUND('',#78,.T.);
#28=FACE_OUTER_BOUND('',#79,.T.);
#29=FACE_OUTER_BOUND('',#80,.T.);
#30=FACE_OUTER_BOUND('',#81,.T.);
#31=FACE_OUTER_BOUND('',#82,.T.);
#32=FACE_OUTER_BOUND('',#83,.T.);
#33=FACE_OUTER_BOUND('',#84,.T.);
#34=FACE_OUTER_BOUND('',#85,.T.);
#35=FACE_OUTER_BOUND('',#86,.T.);
#36=FACE_OUTER_BOUND('',#87,.T.);
#37=FACE_OUTER_BOUND('',#88,.T.);
#38=FACE_OUTER_BOUND('',#89,.T.);
#39=FACE_OUTER_BOUND('',#90,.T.);
#40=FACE_OUTER_BOUND('',#91,.T.);
#41=FACE_OUTER_BOUND('',#92,.T.);
#42=FACE_OUTER_BOUND('',#93,.T.);
#43=FACE_OUTER_BOUND('',#94,.T.);
#44=FACE_OUTER_BOUND('',#95,.T.);
#45=FACE_OUTER_BOUND('',#96,.T.);
#46=FACE_OUTER_BOUND('',#97,.T.);
#47=FACE_OUTER_BOUND('',#98,.T.);
#48=FACE_OUTER_BOUND('',#99,.T.);
#49=FACE_OUTER_BOUND('',#100,.T.);
#50=FACE_OUTER_BOUND('',#101,.T.);
#51=FACE_OUTER_BOUND('',#102,.T.);
#52=FACE_OUTER_BOUND('',#103,.T.);
#53=FACE_OUTER_BOUND('',#104,.T.);
#54=FACE_OUTER_BOUND('',#105,.T.);
#55=FACE_OUTER_BOUND('',#106,.T.);
#56=FACE_OUTER_BOUND('',#107,.T.);
#57=FACE_OUTER_BOUND('',#108,.T.);
#58=FACE_OUTER_BOUND('',#109,.T.);
#59=FACE_OUTER_BOUND('',#110,.T.);
#60=FACE_OUTER_BOUND('',#111,.T.);
#61=FACE_OUTER_BOUND('',#113,.T.);
#62=FACE_OUTER_BOUND('',#114,.T.);
#63=FACE_OUTER_BOUND('',#115,.T.);
#64=FACE_OUTER_BOUND('',#116,.T.);
#65=FACE_OUTER_BOUND('',#117,.T.);
#66=FACE_OUTER_BOUND('',#118,.T.);
#67=FACE_OUTER_BOUND('',#119,.T.);
#68=FACE_OUTER_BOUND('',#120,.T.);
#69=FACE_OUTER_BOUND('',#121,.T.);
#70=FACE_OUTER_BOUND('',#122,.T.);
#71=FACE_OUTER_BOUND('',#123,.T.);
#72=FACE_OUTER_BOUND('',#124,.T.);
#73=EDGE_LOOP('',(#613,#614,#615,#616));
#74=EDGE_LOOP('',(#617,#618,#619,#620,#621,#622,#623,#624,#625,#626,#627,
#628,#629,#630,#631,#632,#633,#634,#635,#636,#637,#638));
#75=EDGE_LOOP('',(#639,#640,#641,#642));
#76=EDGE_LOOP('',(#643,#644,#645,#646));
#77=EDGE_LOOP('',(#647,#648,#649,#650));
#78=EDGE_LOOP('',(#651,#652,#653,#654));
#79=EDGE_LOOP('',(#655,#656,#657,#658));
#80=EDGE_LOOP('',(#659,#660,#661,#662));
#81=EDGE_LOOP('',(#663,#664,#665,#666));
#82=EDGE_LOOP('',(#667,#668,#669,#670));
#83=EDGE_LOOP('',(#671,#672,#673,#674));
#84=EDGE_LOOP('',(#675,#676,#677,#678));
#85=EDGE_LOOP('',(#679,#680,#681,#682,#683,#684));
#86=EDGE_LOOP('',(#685,#686,#687,#688));
#87=EDGE_LOOP('',(#689,#690,#691,#692));
#88=EDGE_LOOP('',(#693,#694,#695,#696));
#89=EDGE_LOOP('',(#697,#698,#699,#700));
#90=EDGE_LOOP('',(#701,#702,#703,#704));
#91=EDGE_LOOP('',(#705,#706,#707,#708));
#92=EDGE_LOOP('',(#709,#710,#711,#712));
#93=EDGE_LOOP('',(#713,#714,#715,#716,#717));
#94=EDGE_LOOP('',(#718,#719,#720,#721,#722,#723));
#95=EDGE_LOOP('',(#724,#725,#726,#727,#728,#729));
#96=EDGE_LOOP('',(#730,#731,#732,#733,#734,#735,#736,#737));
#97=EDGE_LOOP('',(#738,#739,#740,#741,#742,#743,#744,#745));
#98=EDGE_LOOP('',(#746,#747,#748,#749));
#99=EDGE_LOOP('',(#750,#751,#752,#753));
#100=EDGE_LOOP('',(#754,#755,#756,#757));
#101=EDGE_LOOP('',(#758,#759,#760,#761));
#102=EDGE_LOOP('',(#762,#763,#764,#765));
#103=EDGE_LOOP('',(#766,#767,#768,#769));
#104=EDGE_LOOP('',(#770,#771,#772,#773));
#105=EDGE_LOOP('',(#774,#775,#776,#777));
#106=EDGE_LOOP('',(#778,#779,#780,#781));
#107=EDGE_LOOP('',(#782,#783,#784,#785));
#108=EDGE_LOOP('',(#786,#787,#788,#789));
#109=EDGE_LOOP('',(#790,#791,#792,#793));
#110=EDGE_LOOP('',(#794,#795,#796,#797));
#111=EDGE_LOOP('',(#798,#799,#800,#801,#802,#803));
#112=EDGE_LOOP('',(#804,#805,#806,#807,#808,#809,#810,#811,#812,#813,#814,
#815,#816,#817,#818,#819,#820,#821,#822,#823,#824,#825,#826,#827,#828,#829));
#113=EDGE_LOOP('',(#830,#831,#832,#833,#834));
#114=EDGE_LOOP('',(#835,#836,#837,#838,#839));
#115=EDGE_LOOP('',(#840,#841,#842,#843));
#116=EDGE_LOOP('',(#844,#845,#846,#847,#848));
#117=EDGE_LOOP('',(#849,#850,#851,#852,#853));
#118=EDGE_LOOP('',(#854,#855,#856,#857));
#119=EDGE_LOOP('',(#858,#859,#860,#861,#862));
#120=EDGE_LOOP('',(#863,#864,#865,#866));
#121=EDGE_LOOP('',(#867,#868,#869,#870));
#122=EDGE_LOOP('',(#871,#872,#873,#874,#875));
#123=EDGE_LOOP('',(#876,#877,#878,#879,#880));
#124=EDGE_LOOP('',(#881,#882,#883,#884));
#125=LINE('',#1302,#257);
#126=LINE('',#1304,#258);
#127=LINE('',#1306,#259);
#128=LINE('',#1307,#260);
#129=LINE('',#1311,#261);
#130=LINE('',#1312,#262);
#131=LINE('',#1314,#263);
#132=LINE('',#1316,#264);
#133=LINE('',#1318,#265);
#134=LINE('',#1320,#266);
#135=LINE('',#1322,#267);
#136=LINE('',#1324,#268);
#137=LINE('',#1326,#269);
#138=LINE('',#1328,#270);
#139=LINE('',#1330,#271);
#140=LINE('',#1332,#272);
#141=LINE('',#1334,#273);
#142=LINE('',#1336,#274);
#143=LINE('',#1338,#275);
#144=LINE('',#1340,#276);
#145=LINE('',#1342,#277);
#146=LINE('',#1344,#278);
#147=LINE('',#1346,#279);
#148=LINE('',#1348,#280);
#149=LINE('',#1349,#281);
#150=LINE('',#1352,#282);
#151=LINE('',#1354,#283);
#152=LINE('',#1355,#284);
#153=LINE('',#1358,#285);
#154=LINE('',#1359,#286);
#155=LINE('',#1362,#287);
#156=LINE('',#1364,#288);
#157=LINE('',#1365,#289);
#158=LINE('',#1368,#290);
#159=LINE('',#1370,#291);
#160=LINE('',#1371,#292);
#161=LINE('',#1374,#293);
#162=LINE('',#1375,#294);
#163=LINE('',#1378,#295);
#164=LINE('',#1379,#296);
#165=LINE('',#1382,#297);
#166=LINE('',#1383,#298);
#167=LINE('',#1386,#299);
#168=LINE('',#1387,#300);
#169=LINE('',#1390,#301);
#170=LINE('',#1391,#302);
#171=LINE('',#1395,#303);
#172=LINE('',#1397,#304);
#173=LINE('',#1399,#305);
#174=LINE('',#1400,#306);
#175=LINE('',#1403,#307);
#176=LINE('',#1405,#308);
#177=LINE('',#1407,#309);
#178=LINE('',#1409,#310);
#179=LINE('',#1410,#311);
#180=LINE('',#1413,#312);
#181=LINE('',#1415,#313);
#182=LINE('',#1416,#314);
#183=LINE('',#1418,#315);
#184=LINE('',#1421,#316);
#185=LINE('',#1422,#317);
#186=LINE('',#1425,#318);
#187=LINE('',#1426,#319);
#188=LINE('',#1428,#320);
#189=LINE('',#1432,#321);
#190=LINE('',#1436,#322);
#191=LINE('',#1440,#323);
#192=LINE('',#1441,#324);
#193=LINE('',#1442,#325);
#194=LINE('',#1445,#326);
#195=LINE('',#1446,#327);
#196=LINE('',#1450,#328);
#197=LINE('',#1454,#329);
#198=LINE('',#1456,#330);
#199=LINE('',#1458,#331);
#200=LINE('',#1459,#332);
#201=LINE('',#1462,#333);
#202=LINE('',#1464,#334);
#203=LINE('',#1465,#335);
#204=LINE('',#1469,#336);
#205=LINE('',#1471,#337);
#206=LINE('',#1473,#338);
#207=LINE('',#1475,#339);
#208=LINE('',#1477,#340);
#209=LINE('',#1479,#341);
#210=LINE('',#1481,#342);
#211=LINE('',#1482,#343);
#212=LINE('',#1486,#344);
#213=LINE('',#1488,#345);
#214=LINE('',#1490,#346);
#215=LINE('',#1492,#347);
#216=LINE('',#1494,#348);
#217=LINE('',#1496,#349);
#218=LINE('',#1498,#350);
#219=LINE('',#1499,#351);
#220=LINE('',#1502,#352);
#221=LINE('',#1503,#353);
#222=LINE('',#1504,#354);
#223=LINE('',#1507,#355);
#224=LINE('',#1508,#356);
#225=LINE('',#1511,#357);
#226=LINE('',#1512,#358);
#227=LINE('',#1515,#359);
#228=LINE('',#1516,#360);
#229=LINE('',#1518,#361);
#230=LINE('',#1519,#362);
#231=LINE('',#1522,#363);
#232=LINE('',#1523,#364);
#233=LINE('',#1524,#365);
#234=LINE('',#1527,#366);
#235=LINE('',#1528,#367);
#236=LINE('',#1531,#368);
#237=LINE('',#1532,#369);
#238=LINE('',#1535,#370);
#239=LINE('',#1536,#371);
#240=LINE('',#1538,#372);
#241=LINE('',#1539,#373);
#242=LINE('',#1541,#374);
#243=LINE('',#1542,#375);
#244=LINE('',#1547,#376);
#245=LINE('',#1548,#377);
#246=LINE('',#1550,#378);
#247=LINE('',#1551,#379);
#248=LINE('',#1553,#380);
#249=LINE('',#1555,#381);
#250=LINE('',#1557,#382);
#251=LINE('',#1560,#383);
#252=LINE('',#1562,#384);
#253=LINE('',#1565,#385);
#254=LINE('',#1568,#386);
#255=LINE('',#1570,#387);
#256=LINE('',#1572,#388);
#257=VECTOR('',#1058,1.);
#258=VECTOR('',#1059,1.);
#259=VECTOR('',#1060,1.);
#260=VECTOR('',#1061,1.);
#261=VECTOR('',#1064,1.);
#262=VECTOR('',#1065,1.);
#263=VECTOR('',#1066,1.);
#264=VECTOR('',#1067,1.);
#265=VECTOR('',#1068,1.);
#266=VECTOR('',#1069,1.);
#267=VECTOR('',#1070,1.);
#268=VECTOR('',#1071,1.);
#269=VECTOR('',#1072,1.);
#270=VECTOR('',#1073,1.);
#271=VECTOR('',#1074,1.);
#272=VECTOR('',#1075,1.);
#273=VECTOR('',#1076,1.);
#274=VECTOR('',#1077,1.);
#275=VECTOR('',#1078,1.);
#276=VECTOR('',#1079,1.);
#277=VECTOR('',#1080,1.);
#278=VECTOR('',#1081,1.);
#279=VECTOR('',#1082,1.);
#280=VECTOR('',#1083,1.);
#281=VECTOR('',#1084,1.);
#282=VECTOR('',#1087,1.);
#283=VECTOR('',#1088,1.);
#284=VECTOR('',#1089,1.);
#285=VECTOR('',#1092,1.);
#286=VECTOR('',#1093,1.);
#287=VECTOR('',#1096,1.);
#288=VECTOR('',#1097,1.);
#289=VECTOR('',#1098,1.);
#290=VECTOR('',#1101,1.);
#291=VECTOR('',#1102,1.);
#292=VECTOR('',#1103,1.);
#293=VECTOR('',#1106,1.);
#294=VECTOR('',#1107,1.);
#295=VECTOR('',#1110,1.);
#296=VECTOR('',#1111,1.);
#297=VECTOR('',#1114,1.);
#298=VECTOR('',#1115,1.);
#299=VECTOR('',#1118,1.);
#300=VECTOR('',#1119,1.);
#301=VECTOR('',#1122,1.);
#302=VECTOR('',#1123,1.);
#303=VECTOR('',#1126,1.);
#304=VECTOR('',#1127,1.);
#305=VECTOR('',#1128,1.);
#306=VECTOR('',#1129,1.);
#307=VECTOR('',#1132,1.);
#308=VECTOR('',#1133,1.);
#309=VECTOR('',#1134,1.);
#310=VECTOR('',#1135,1.);
#311=VECTOR('',#1136,1.);
#312=VECTOR('',#1139,1.);
#313=VECTOR('',#1140,1.);
#314=VECTOR('',#1141,1.);
#315=VECTOR('',#1144,1.);
#316=VECTOR('',#1147,1.);
#317=VECTOR('',#1148,1.);
#318=VECTOR('',#1151,1.);
#319=VECTOR('',#1152,1.);
#320=VECTOR('',#1155,1.);
#321=VECTOR('',#1158,1.);
#322=VECTOR('',#1161,1.);
#323=VECTOR('',#1166,1.);
#324=VECTOR('',#1167,1.);
#325=VECTOR('',#1168,1.);
#326=VECTOR('',#1171,1.);
#327=VECTOR('',#1172,1.);
#328=VECTOR('',#1175,1.);
#329=VECTOR('',#1178,1.);
#330=VECTOR('',#1179,1.);
#331=VECTOR('',#1180,1.);
#332=VECTOR('',#1181,1.);
#333=VECTOR('',#1184,1.);
#334=VECTOR('',#1185,1.);
#335=VECTOR('',#1186,1.);
#336=VECTOR('',#1189,1.);
#337=VECTOR('',#1190,1.);
#338=VECTOR('',#1191,1.);
#339=VECTOR('',#1192,1.);
#340=VECTOR('',#1193,1.);
#341=VECTOR('',#1194,1.);
#342=VECTOR('',#1195,1.);
#343=VECTOR('',#1196,1.);
#344=VECTOR('',#1199,1.);
#345=VECTOR('',#1200,1.);
#346=VECTOR('',#1201,1.);
#347=VECTOR('',#1202,1.);
#348=VECTOR('',#1203,1.);
#349=VECTOR('',#1204,1.);
#350=VECTOR('',#1205,1.);
#351=VECTOR('',#1206,1.);
#352=VECTOR('',#1209,1.);
#353=VECTOR('',#1210,1.);
#354=VECTOR('',#1211,1.);
#355=VECTOR('',#1214,1.);
#356=VECTOR('',#1215,1.);
#357=VECTOR('',#1218,1.);
#358=VECTOR('',#1219,1.);
#359=VECTOR('',#1222,1.);
#360=VECTOR('',#1223,1.);
#361=VECTOR('',#1226,1.);
#362=VECTOR('',#1227,1.);
#363=VECTOR('',#1230,1.);
#364=VECTOR('',#1231,1.);
#365=VECTOR('',#1232,1.);
#366=VECTOR('',#1235,1.);
#367=VECTOR('',#1236,1.);
#368=VECTOR('',#1239,1.);
#369=VECTOR('',#1240,1.);
#370=VECTOR('',#1243,1.);
#371=VECTOR('',#1244,1.);
#372=VECTOR('',#1247,1.);
#373=VECTOR('',#1248,1.);
#374=VECTOR('',#1251,1.);
#375=VECTOR('',#1252,1.);
#376=VECTOR('',#1257,1.);
#377=VECTOR('',#1258,1.);
#378=VECTOR('',#1261,1.);
#379=VECTOR('',#1262,1.);
#380=VECTOR('',#1265,1.);
#381=VECTOR('',#1268,1.);
#382=VECTOR('',#1271,1.);
#383=VECTOR('',#1276,1.);
#384=VECTOR('',#1279,1.);
#385=VECTOR('',#1284,1.);
#386=VECTOR('',#1289,1.);
#387=VECTOR('',#1292,1.);
#388=VECTOR('',#1295,1.);
#389=VERTEX_POINT('',#1300);
#390=VERTEX_POINT('',#1301);
#391=VERTEX_POINT('',#1303);
#392=VERTEX_POINT('',#1305);
#393=VERTEX_POINT('',#1309);
#394=VERTEX_POINT('',#1310);
#395=VERTEX_POINT('',#1313);
#396=VERTEX_POINT('',#1315);
#397=VERTEX_POINT('',#1317);
#398=VERTEX_POINT('',#1319);
#399=VERTEX_POINT('',#1321);
#400=VERTEX_POINT('',#1323);
#401=VERTEX_POINT('',#1325);
#402=VERTEX_POINT('',#1327);
#403=VERTEX_POINT('',#1329);
#404=VERTEX_POINT('',#1331);
#405=VERTEX_POINT('',#1333);
#406=VERTEX_POINT('',#1335);
#407=VERTEX_POINT('',#1337);
#408=VERTEX_POINT('',#1339);
#409=VERTEX_POINT('',#1341);
#410=VERTEX_POINT('',#1343);
#411=VERTEX_POINT('',#1345);
#412=VERTEX_POINT('',#1347);
#413=VERTEX_POINT('',#1351);
#414=VERTEX_POINT('',#1353);
#415=VERTEX_POINT('',#1357);
#416=VERTEX_POINT('',#1361);
#417=VERTEX_POINT('',#1363);
#418=VERTEX_POINT('',#1367);
#419=VERTEX_POINT('',#1369);
#420=VERTEX_POINT('',#1373);
#421=VERTEX_POINT('',#1377);
#422=VERTEX_POINT('',#1381);
#423=VERTEX_POINT('',#1385);
#424=VERTEX_POINT('',#1389);
#425=VERTEX_POINT('',#1393);
#426=VERTEX_POINT('',#1394);
#427=VERTEX_POINT('',#1396);
#428=VERTEX_POINT('',#1398);
#429=VERTEX_POINT('',#1402);
#430=VERTEX_POINT('',#1404);
#431=VERTEX_POINT('',#1406);
#432=VERTEX_POINT('',#1408);
#433=VERTEX_POINT('',#1412);
#434=VERTEX_POINT('',#1414);
#435=VERTEX_POINT('',#1420);
#436=VERTEX_POINT('',#1424);
#437=VERTEX_POINT('',#1430);
#438=VERTEX_POINT('',#1431);
#439=VERTEX_POINT('',#1433);
#440=VERTEX_POINT('',#1435);
#441=VERTEX_POINT('',#1439);
#442=VERTEX_POINT('',#1444);
#443=VERTEX_POINT('',#1448);
#444=VERTEX_POINT('',#1449);
#445=VERTEX_POINT('',#1451);
#446=VERTEX_POINT('',#1453);
#447=VERTEX_POINT('',#1455);
#448=VERTEX_POINT('',#1457);
#449=VERTEX_POINT('',#1461);
#450=VERTEX_POINT('',#1463);
#451=VERTEX_POINT('',#1467);
#452=VERTEX_POINT('',#1468);
#453=VERTEX_POINT('',#1470);
#454=VERTEX_POINT('',#1472);
#455=VERTEX_POINT('',#1474);
#456=VERTEX_POINT('',#1476);
#457=VERTEX_POINT('',#1478);
#458=VERTEX_POINT('',#1480);
#459=VERTEX_POINT('',#1484);
#460=VERTEX_POINT('',#1485);
#461=VERTEX_POINT('',#1487);
#462=VERTEX_POINT('',#1489);
#463=VERTEX_POINT('',#1491);
#464=VERTEX_POINT('',#1493);
#465=VERTEX_POINT('',#1495);
#466=VERTEX_POINT('',#1497);
#467=VERTEX_POINT('',#1501);
#468=VERTEX_POINT('',#1506);
#469=VERTEX_POINT('',#1510);
#470=VERTEX_POINT('',#1514);
#471=VERTEX_POINT('',#1521);
#472=VERTEX_POINT('',#1526);
#473=VERTEX_POINT('',#1530);
#474=VERTEX_POINT('',#1534);
#475=VERTEX_POINT('',#1544);
#476=VERTEX_POINT('',#1545);
#477=EDGE_CURVE('',#389,#390,#125,.T.);
#478=EDGE_CURVE('',#390,#391,#126,.T.);
#479=EDGE_CURVE('',#391,#392,#127,.T.);
#480=EDGE_CURVE('',#392,#389,#128,.T.);
#481=EDGE_CURVE('',#393,#394,#129,.T.);
#482=EDGE_CURVE('',#390,#393,#130,.T.);
#483=EDGE_CURVE('',#389,#395,#131,.T.);
#484=EDGE_CURVE('',#396,#395,#132,.T.);
#485=EDGE_CURVE('',#397,#396,#133,.T.);
#486=EDGE_CURVE('',#398,#397,#134,.T.);
#487=EDGE_CURVE('',#399,#398,#135,.T.);
#488=EDGE_CURVE('',#400,#399,#136,.T.);
#489=EDGE_CURVE('',#401,#400,#137,.T.);
#490=EDGE_CURVE('',#401,#402,#138,.T.);
#491=EDGE_CURVE('',#403,#402,#139,.T.);
#492=EDGE_CURVE('',#404,#403,#140,.T.);
#493=EDGE_CURVE('',#405,#404,#141,.T.);
#494=EDGE_CURVE('',#405,#406,#142,.T.);
#495=EDGE_CURVE('',#407,#406,#143,.T.);
#496=EDGE_CURVE('',#408,#407,#144,.T.);
#497=EDGE_CURVE('',#409,#408,#145,.T.);
#498=EDGE_CURVE('',#410,#409,#146,.T.);
#499=EDGE_CURVE('',#411,#410,#147,.T.);
#500=EDGE_CURVE('',#412,#411,#148,.T.);
#501=EDGE_CURVE('',#412,#394,#149,.T.);
#502=EDGE_CURVE('',#410,#413,#150,.T.);
#503=EDGE_CURVE('',#413,#414,#151,.T.);
#504=EDGE_CURVE('',#414,#411,#152,.T.);
#505=EDGE_CURVE('',#415,#409,#153,.T.);
#506=EDGE_CURVE('',#415,#413,#154,.T.);
#507=EDGE_CURVE('',#400,#416,#155,.T.);
#508=EDGE_CURVE('',#416,#417,#156,.T.);
#509=EDGE_CURVE('',#417,#401,#157,.T.);
#510=EDGE_CURVE('',#404,#418,#158,.T.);
#511=EDGE_CURVE('',#418,#419,#159,.T.);
#512=EDGE_CURVE('',#419,#405,#160,.T.);
#513=EDGE_CURVE('',#408,#420,#161,.T.);
#514=EDGE_CURVE('',#420,#415,#162,.T.);
#515=EDGE_CURVE('',#421,#399,#163,.T.);
#516=EDGE_CURVE('',#421,#416,#164,.T.);
#517=EDGE_CURVE('',#398,#422,#165,.T.);
#518=EDGE_CURVE('',#422,#421,#166,.T.);
#519=EDGE_CURVE('',#397,#423,#167,.T.);
#520=EDGE_CURVE('',#423,#422,#168,.T.);
#521=EDGE_CURVE('',#414,#424,#169,.T.);
#522=EDGE_CURVE('',#424,#412,#170,.T.);
#523=EDGE_CURVE('',#425,#426,#171,.T.);
#524=EDGE_CURVE('',#425,#427,#172,.T.);
#525=EDGE_CURVE('',#427,#428,#173,.T.);
#526=EDGE_CURVE('',#426,#428,#174,.T.);
#527=EDGE_CURVE('',#429,#428,#175,.T.);
#528=EDGE_CURVE('',#429,#430,#176,.T.);
#529=EDGE_CURVE('',#430,#431,#177,.T.);
#530=EDGE_CURVE('',#431,#432,#178,.T.);
#531=EDGE_CURVE('',#432,#426,#179,.T.);
#532=EDGE_CURVE('',#429,#433,#180,.T.);
#533=EDGE_CURVE('',#433,#434,#181,.T.);
#534=EDGE_CURVE('',#430,#434,#182,.T.);
#535=EDGE_CURVE('',#427,#433,#183,.T.);
#536=EDGE_CURVE('',#435,#432,#184,.T.);
#537=EDGE_CURVE('',#435,#425,#185,.T.);
#538=EDGE_CURVE('',#436,#434,#186,.T.);
#539=EDGE_CURVE('',#436,#431,#187,.T.);
#540=EDGE_CURVE('',#435,#436,#188,.T.);
#541=EDGE_CURVE('',#437,#438,#189,.T.);
#542=EDGE_CURVE('',#439,#437,#16,.T.);
#543=EDGE_CURVE('',#440,#439,#190,.T.);
#544=EDGE_CURVE('',#438,#440,#17,.T.);
#545=EDGE_CURVE('',#441,#420,#191,.T.);
#546=EDGE_CURVE('',#437,#441,#192,.T.);
#547=EDGE_CURVE('',#438,#420,#193,.T.);
#548=EDGE_CURVE('',#407,#442,#194,.T.);
#549=EDGE_CURVE('',#441,#442,#195,.T.);
#550=EDGE_CURVE('',#443,#444,#196,.T.);
#551=EDGE_CURVE('',#444,#445,#18,.T.);
#552=EDGE_CURVE('',#445,#446,#197,.T.);
#553=EDGE_CURVE('',#446,#447,#198,.T.);
#554=EDGE_CURVE('',#447,#448,#199,.T.);
#555=EDGE_CURVE('',#448,#443,#200,.T.);
#556=EDGE_CURVE('',#449,#439,#201,.T.);
#557=EDGE_CURVE('',#442,#450,#202,.T.);
#558=EDGE_CURVE('',#450,#449,#203,.T.);
#559=EDGE_CURVE('',#451,#452,#204,.T.);
#560=EDGE_CURVE('',#452,#453,#205,.T.);
#561=EDGE_CURVE('',#453,#454,#206,.T.);
#562=EDGE_CURVE('',#454,#455,#207,.T.);
#563=EDGE_CURVE('',#455,#456,#208,.T.);
#564=EDGE_CURVE('',#456,#457,#209,.T.);
#565=EDGE_CURVE('',#457,#458,#210,.T.);
#566=EDGE_CURVE('',#458,#451,#211,.T.);
#567=EDGE_CURVE('',#459,#460,#212,.T.);
#568=EDGE_CURVE('',#460,#461,#213,.T.);
#569=EDGE_CURVE('',#461,#462,#214,.T.);
#570=EDGE_CURVE('',#462,#463,#215,.T.);
#571=EDGE_CURVE('',#463,#464,#216,.T.);
#572=EDGE_CURVE('',#464,#465,#217,.T.);
#573=EDGE_CURVE('',#465,#466,#218,.T.);
#574=EDGE_CURVE('',#466,#459,#219,.T.);
#575=EDGE_CURVE('',#467,#455,#220,.T.);
#576=EDGE_CURVE('',#423,#467,#221,.T.);
#577=EDGE_CURVE('',#423,#456,#222,.T.);
#578=EDGE_CURVE('',#468,#454,#223,.T.);
#579=EDGE_CURVE('',#467,#468,#224,.T.);
#580=EDGE_CURVE('',#469,#453,#225,.T.);
#581=EDGE_CURVE('',#468,#469,#226,.T.);
#582=EDGE_CURVE('',#470,#452,#227,.T.);
#583=EDGE_CURVE('',#469,#470,#228,.T.);
#584=EDGE_CURVE('',#392,#451,#229,.T.);
#585=EDGE_CURVE('',#470,#392,#230,.T.);
#586=EDGE_CURVE('',#471,#463,#231,.T.);
#587=EDGE_CURVE('',#391,#471,#232,.T.);
#588=EDGE_CURVE('',#391,#464,#233,.T.);
#589=EDGE_CURVE('',#472,#462,#234,.T.);
#590=EDGE_CURVE('',#471,#472,#235,.T.);
#591=EDGE_CURVE('',#473,#461,#236,.T.);
#592=EDGE_CURVE('',#472,#473,#237,.T.);
#593=EDGE_CURVE('',#474,#460,#238,.T.);
#594=EDGE_CURVE('',#473,#474,#239,.T.);
#595=EDGE_CURVE('',#424,#459,#240,.T.);
#596=EDGE_CURVE('',#474,#424,#241,.T.);
#597=EDGE_CURVE('',#419,#449,#242,.T.);
#598=EDGE_CURVE('',#419,#440,#243,.T.);
#599=EDGE_CURVE('',#475,#476,#19,.T.);
#600=EDGE_CURVE('',#445,#475,#244,.T.);
#601=EDGE_CURVE('',#476,#444,#245,.T.);
#602=EDGE_CURVE('',#475,#418,#246,.T.);
#603=EDGE_CURVE('',#446,#418,#247,.T.);
#604=EDGE_CURVE('',#417,#476,#248,.T.);
#605=EDGE_CURVE('',#395,#458,#249,.T.);
#606=EDGE_CURVE('',#457,#396,#250,.T.);
#607=EDGE_CURVE('',#394,#466,#251,.T.);
#608=EDGE_CURVE('',#465,#393,#252,.T.);
#609=EDGE_CURVE('',#406,#450,#253,.T.);
#610=EDGE_CURVE('',#417,#443,#254,.T.);
#611=EDGE_CURVE('',#403,#447,#255,.T.);
#612=EDGE_CURVE('',#402,#448,#256,.T.);
#613=ORIENTED_EDGE('',*,*,#477,.T.);
#614=ORIENTED_EDGE('',*,*,#478,.T.);
#615=ORIENTED_EDGE('',*,*,#479,.T.);
#616=ORIENTED_EDGE('',*,*,#480,.T.);
#617=ORIENTED_EDGE('',*,*,#481,.F.);
#618=ORIENTED_EDGE('',*,*,#482,.F.);
#619=ORIENTED_EDGE('',*,*,#477,.F.);
#620=ORIENTED_EDGE('',*,*,#483,.T.);
#621=ORIENTED_EDGE('',*,*,#484,.F.);
#622=ORIENTED_EDGE('',*,*,#485,.F.);
#623=ORIENTED_EDGE('',*,*,#486,.F.);
#624=ORIENTED_EDGE('',*,*,#487,.F.);
#625=ORIENTED_EDGE('',*,*,#488,.F.);
#626=ORIENTED_EDGE('',*,*,#489,.F.);
#627=ORIENTED_EDGE('',*,*,#490,.T.);
#628=ORIENTED_EDGE('',*,*,#491,.F.);
#629=ORIENTED_EDGE('',*,*,#492,.F.);
#630=ORIENTED_EDGE('',*,*,#493,.F.);
#631=ORIENTED_EDGE('',*,*,#494,.T.);
#632=ORIENTED_EDGE('',*,*,#495,.F.);
#633=ORIENTED_EDGE('',*,*,#496,.F.);
#634=ORIENTED_EDGE('',*,*,#497,.F.);
#635=ORIENTED_EDGE('',*,*,#498,.F.);
#636=ORIENTED_EDGE('',*,*,#499,.F.);
#637=ORIENTED_EDGE('',*,*,#500,.F.);
#638=ORIENTED_EDGE('',*,*,#501,.T.);
#639=ORIENTED_EDGE('',*,*,#499,.T.);
#640=ORIENTED_EDGE('',*,*,#502,.T.);
#641=ORIENTED_EDGE('',*,*,#503,.T.);
#642=ORIENTED_EDGE('',*,*,#504,.T.);
#643=ORIENTED_EDGE('',*,*,#498,.T.);
#644=ORIENTED_EDGE('',*,*,#505,.F.);
#645=ORIENTED_EDGE('',*,*,#506,.T.);
#646=ORIENTED_EDGE('',*,*,#502,.F.);
#647=ORIENTED_EDGE('',*,*,#489,.T.);
#648=ORIENTED_EDGE('',*,*,#507,.T.);
#649=ORIENTED_EDGE('',*,*,#508,.T.);
#650=ORIENTED_EDGE('',*,*,#509,.T.);
#651=ORIENTED_EDGE('',*,*,#493,.T.);
#652=ORIENTED_EDGE('',*,*,#510,.T.);
#653=ORIENTED_EDGE('',*,*,#511,.T.);
#654=ORIENTED_EDGE('',*,*,#512,.T.);
#655=ORIENTED_EDGE('',*,*,#497,.T.);
#656=ORIENTED_EDGE('',*,*,#513,.T.);
#657=ORIENTED_EDGE('',*,*,#514,.T.);
#658=ORIENTED_EDGE('',*,*,#505,.T.);
#659=ORIENTED_EDGE('',*,*,#488,.T.);
#660=ORIENTED_EDGE('',*,*,#515,.F.);
#661=ORIENTED_EDGE('',*,*,#516,.T.);
#662=ORIENTED_EDGE('',*,*,#507,.F.);
#663=ORIENTED_EDGE('',*,*,#487,.T.);
#664=ORIENTED_EDGE('',*,*,#517,.T.);
#665=ORIENTED_EDGE('',*,*,#518,.T.);
#666=ORIENTED_EDGE('',*,*,#515,.T.);
#667=ORIENTED_EDGE('',*,*,#486,.T.);
#668=ORIENTED_EDGE('',*,*,#519,.T.);
#669=ORIENTED_EDGE('',*,*,#520,.T.);
#670=ORIENTED_EDGE('',*,*,#517,.F.);
#671=ORIENTED_EDGE('',*,*,#500,.T.);
#672=ORIENTED_EDGE('',*,*,#504,.F.);
#673=ORIENTED_EDGE('',*,*,#521,.T.);
#674=ORIENTED_EDGE('',*,*,#522,.T.);
#675=ORIENTED_EDGE('',*,*,#523,.F.);
#676=ORIENTED_EDGE('',*,*,#524,.T.);
#677=ORIENTED_EDGE('',*,*,#525,.T.);
#678=ORIENTED_EDGE('',*,*,#526,.F.);
#679=ORIENTED_EDGE('',*,*,#526,.T.);
#680=ORIENTED_EDGE('',*,*,#527,.F.);
#681=ORIENTED_EDGE('',*,*,#528,.T.);
#682=ORIENTED_EDGE('',*,*,#529,.T.);
#683=ORIENTED_EDGE('',*,*,#530,.T.);
#684=ORIENTED_EDGE('',*,*,#531,.T.);
#685=ORIENTED_EDGE('',*,*,#532,.T.);
#686=ORIENTED_EDGE('',*,*,#533,.T.);
#687=ORIENTED_EDGE('',*,*,#534,.F.);
#688=ORIENTED_EDGE('',*,*,#528,.F.);
#689=ORIENTED_EDGE('',*,*,#525,.F.);
#690=ORIENTED_EDGE('',*,*,#535,.T.);
#691=ORIENTED_EDGE('',*,*,#532,.F.);
#692=ORIENTED_EDGE('',*,*,#527,.T.);
#693=ORIENTED_EDGE('',*,*,#531,.F.);
#694=ORIENTED_EDGE('',*,*,#536,.F.);
#695=ORIENTED_EDGE('',*,*,#537,.T.);
#696=ORIENTED_EDGE('',*,*,#523,.T.);
#697=ORIENTED_EDGE('',*,*,#534,.T.);
#698=ORIENTED_EDGE('',*,*,#538,.F.);
#699=ORIENTED_EDGE('',*,*,#539,.T.);
#700=ORIENTED_EDGE('',*,*,#529,.F.);
#701=ORIENTED_EDGE('',*,*,#536,.T.);
#702=ORIENTED_EDGE('',*,*,#530,.F.);
#703=ORIENTED_EDGE('',*,*,#539,.F.);
#704=ORIENTED_EDGE('',*,*,#540,.F.);
#705=ORIENTED_EDGE('',*,*,#541,.F.);
#706=ORIENTED_EDGE('',*,*,#542,.F.);
#707=ORIENTED_EDGE('',*,*,#543,.F.);
#708=ORIENTED_EDGE('',*,*,#544,.F.);
#709=ORIENTED_EDGE('',*,*,#545,.F.);
#710=ORIENTED_EDGE('',*,*,#546,.F.);
#711=ORIENTED_EDGE('',*,*,#541,.T.);
#712=ORIENTED_EDGE('',*,*,#547,.T.);
#713=ORIENTED_EDGE('',*,*,#548,.T.);
#714=ORIENTED_EDGE('',*,*,#549,.F.);
#715=ORIENTED_EDGE('',*,*,#545,.T.);
#716=ORIENTED_EDGE('',*,*,#513,.F.);
#717=ORIENTED_EDGE('',*,*,#496,.T.);
#718=ORIENTED_EDGE('',*,*,#550,.T.);
#719=ORIENTED_EDGE('',*,*,#551,.T.);
#720=ORIENTED_EDGE('',*,*,#552,.T.);
#721=ORIENTED_EDGE('',*,*,#553,.T.);
#722=ORIENTED_EDGE('',*,*,#554,.T.);
#723=ORIENTED_EDGE('',*,*,#555,.T.);
#724=ORIENTED_EDGE('',*,*,#556,.T.);
#725=ORIENTED_EDGE('',*,*,#542,.T.);
#726=ORIENTED_EDGE('',*,*,#546,.T.);
#727=ORIENTED_EDGE('',*,*,#549,.T.);
#728=ORIENTED_EDGE('',*,*,#557,.T.);
#729=ORIENTED_EDGE('',*,*,#558,.T.);
#730=ORIENTED_EDGE('',*,*,#559,.T.);
#731=ORIENTED_EDGE('',*,*,#560,.T.);
#732=ORIENTED_EDGE('',*,*,#561,.T.);
#733=ORIENTED_EDGE('',*,*,#562,.T.);
#734=ORIENTED_EDGE('',*,*,#563,.T.);
#735=ORIENTED_EDGE('',*,*,#564,.T.);
#736=ORIENTED_EDGE('',*,*,#565,.T.);
#737=ORIENTED_EDGE('',*,*,#566,.T.);
#738=ORIENTED_EDGE('',*,*,#567,.T.);
#739=ORIENTED_EDGE('',*,*,#568,.T.);
#740=ORIENTED_EDGE('',*,*,#569,.T.);
#741=ORIENTED_EDGE('',*,*,#570,.T.);
#742=ORIENTED_EDGE('',*,*,#571,.T.);
#743=ORIENTED_EDGE('',*,*,#572,.T.);
#744=ORIENTED_EDGE('',*,*,#573,.T.);
#745=ORIENTED_EDGE('',*,*,#574,.T.);
#746=ORIENTED_EDGE('',*,*,#575,.F.);
#747=ORIENTED_EDGE('',*,*,#576,.F.);
#748=ORIENTED_EDGE('',*,*,#577,.T.);
#749=ORIENTED_EDGE('',*,*,#563,.F.);
#750=ORIENTED_EDGE('',*,*,#578,.F.);
#751=ORIENTED_EDGE('',*,*,#579,.F.);
#752=ORIENTED_EDGE('',*,*,#575,.T.);
#753=ORIENTED_EDGE('',*,*,#562,.F.);
#754=ORIENTED_EDGE('',*,*,#580,.F.);
#755=ORIENTED_EDGE('',*,*,#581,.F.);
#756=ORIENTED_EDGE('',*,*,#578,.T.);
#757=ORIENTED_EDGE('',*,*,#561,.F.);
#758=ORIENTED_EDGE('',*,*,#582,.F.);
#759=ORIENTED_EDGE('',*,*,#583,.F.);
#760=ORIENTED_EDGE('',*,*,#580,.T.);
#761=ORIENTED_EDGE('',*,*,#560,.F.);
#762=ORIENTED_EDGE('',*,*,#584,.F.);
#763=ORIENTED_EDGE('',*,*,#585,.F.);
#764=ORIENTED_EDGE('',*,*,#582,.T.);
#765=ORIENTED_EDGE('',*,*,#559,.F.);
#766=ORIENTED_EDGE('',*,*,#586,.F.);
#767=ORIENTED_EDGE('',*,*,#587,.F.);
#768=ORIENTED_EDGE('',*,*,#588,.T.);
#769=ORIENTED_EDGE('',*,*,#571,.F.);
#770=ORIENTED_EDGE('',*,*,#589,.F.);
#771=ORIENTED_EDGE('',*,*,#590,.F.);
#772=ORIENTED_EDGE('',*,*,#586,.T.);
#773=ORIENTED_EDGE('',*,*,#570,.F.);
#774=ORIENTED_EDGE('',*,*,#591,.F.);
#775=ORIENTED_EDGE('',*,*,#592,.F.);
#776=ORIENTED_EDGE('',*,*,#589,.T.);
#777=ORIENTED_EDGE('',*,*,#569,.F.);
#778=ORIENTED_EDGE('',*,*,#593,.F.);
#779=ORIENTED_EDGE('',*,*,#594,.F.);
#780=ORIENTED_EDGE('',*,*,#591,.T.);
#781=ORIENTED_EDGE('',*,*,#568,.F.);
#782=ORIENTED_EDGE('',*,*,#595,.F.);
#783=ORIENTED_EDGE('',*,*,#596,.F.);
#784=ORIENTED_EDGE('',*,*,#593,.T.);
#785=ORIENTED_EDGE('',*,*,#567,.F.);
#786=ORIENTED_EDGE('',*,*,#543,.T.);
#787=ORIENTED_EDGE('',*,*,#556,.F.);
#788=ORIENTED_EDGE('',*,*,#597,.F.);
#789=ORIENTED_EDGE('',*,*,#598,.T.);
#790=ORIENTED_EDGE('',*,*,#599,.F.);
#791=ORIENTED_EDGE('',*,*,#600,.F.);
#792=ORIENTED_EDGE('',*,*,#551,.F.);
#793=ORIENTED_EDGE('',*,*,#601,.F.);
#794=ORIENTED_EDGE('',*,*,#600,.T.);
#795=ORIENTED_EDGE('',*,*,#602,.T.);
#796=ORIENTED_EDGE('',*,*,#603,.F.);
#797=ORIENTED_EDGE('',*,*,#552,.F.);
#798=ORIENTED_EDGE('',*,*,#538,.T.);
#799=ORIENTED_EDGE('',*,*,#533,.F.);
#800=ORIENTED_EDGE('',*,*,#535,.F.);
#801=ORIENTED_EDGE('',*,*,#524,.F.);
#802=ORIENTED_EDGE('',*,*,#537,.F.);
#803=ORIENTED_EDGE('',*,*,#540,.T.);
#804=ORIENTED_EDGE('',*,*,#585,.T.);
#805=ORIENTED_EDGE('',*,*,#479,.F.);
#806=ORIENTED_EDGE('',*,*,#587,.T.);
#807=ORIENTED_EDGE('',*,*,#590,.T.);
#808=ORIENTED_EDGE('',*,*,#592,.T.);
#809=ORIENTED_EDGE('',*,*,#594,.T.);
#810=ORIENTED_EDGE('',*,*,#596,.T.);
#811=ORIENTED_EDGE('',*,*,#521,.F.);
#812=ORIENTED_EDGE('',*,*,#503,.F.);
#813=ORIENTED_EDGE('',*,*,#506,.F.);
#814=ORIENTED_EDGE('',*,*,#514,.F.);
#815=ORIENTED_EDGE('',*,*,#547,.F.);
#816=ORIENTED_EDGE('',*,*,#544,.T.);
#817=ORIENTED_EDGE('',*,*,#598,.F.);
#818=ORIENTED_EDGE('',*,*,#511,.F.);
#819=ORIENTED_EDGE('',*,*,#602,.F.);
#820=ORIENTED_EDGE('',*,*,#599,.T.);
#821=ORIENTED_EDGE('',*,*,#604,.F.);
#822=ORIENTED_EDGE('',*,*,#508,.F.);
#823=ORIENTED_EDGE('',*,*,#516,.F.);
#824=ORIENTED_EDGE('',*,*,#518,.F.);
#825=ORIENTED_EDGE('',*,*,#520,.F.);
#826=ORIENTED_EDGE('',*,*,#576,.T.);
#827=ORIENTED_EDGE('',*,*,#579,.T.);
#828=ORIENTED_EDGE('',*,*,#581,.T.);
#829=ORIENTED_EDGE('',*,*,#583,.T.);
#830=ORIENTED_EDGE('',*,*,#605,.F.);
#831=ORIENTED_EDGE('',*,*,#483,.F.);
#832=ORIENTED_EDGE('',*,*,#480,.F.);
#833=ORIENTED_EDGE('',*,*,#584,.T.);
#834=ORIENTED_EDGE('',*,*,#566,.F.);
#835=ORIENTED_EDGE('',*,*,#519,.F.);
#836=ORIENTED_EDGE('',*,*,#485,.T.);
#837=ORIENTED_EDGE('',*,*,#606,.F.);
#838=ORIENTED_EDGE('',*,*,#564,.F.);
#839=ORIENTED_EDGE('',*,*,#577,.F.);
#840=ORIENTED_EDGE('',*,*,#606,.T.);
#841=ORIENTED_EDGE('',*,*,#484,.T.);
#842=ORIENTED_EDGE('',*,*,#605,.T.);
#843=ORIENTED_EDGE('',*,*,#565,.F.);
#844=ORIENTED_EDGE('',*,*,#607,.F.);
#845=ORIENTED_EDGE('',*,*,#501,.F.);
#846=ORIENTED_EDGE('',*,*,#522,.F.);
#847=ORIENTED_EDGE('',*,*,#595,.T.);
#848=ORIENTED_EDGE('',*,*,#574,.F.);
#849=ORIENTED_EDGE('',*,*,#478,.F.);
#850=ORIENTED_EDGE('',*,*,#482,.T.);
#851=ORIENTED_EDGE('',*,*,#608,.F.);
#852=ORIENTED_EDGE('',*,*,#572,.F.);
#853=ORIENTED_EDGE('',*,*,#588,.F.);
#854=ORIENTED_EDGE('',*,*,#608,.T.);
#855=ORIENTED_EDGE('',*,*,#481,.T.);
#856=ORIENTED_EDGE('',*,*,#607,.T.);
#857=ORIENTED_EDGE('',*,*,#573,.F.);
#858=ORIENTED_EDGE('',*,*,#597,.T.);
#859=ORIENTED_EDGE('',*,*,#558,.F.);
#860=ORIENTED_EDGE('',*,*,#609,.F.);
#861=ORIENTED_EDGE('',*,*,#494,.F.);
#862=ORIENTED_EDGE('',*,*,#512,.F.);
#863=ORIENTED_EDGE('',*,*,#609,.T.);
#864=ORIENTED_EDGE('',*,*,#557,.F.);
#865=ORIENTED_EDGE('',*,*,#548,.F.);
#866=ORIENTED_EDGE('',*,*,#495,.T.);
#867=ORIENTED_EDGE('',*,*,#601,.T.);
#868=ORIENTED_EDGE('',*,*,#550,.F.);
#869=ORIENTED_EDGE('',*,*,#610,.F.);
#870=ORIENTED_EDGE('',*,*,#604,.T.);
#871=ORIENTED_EDGE('',*,*,#603,.T.);
#872=ORIENTED_EDGE('',*,*,#510,.F.);
#873=ORIENTED_EDGE('',*,*,#492,.T.);
#874=ORIENTED_EDGE('',*,*,#611,.T.);
#875=ORIENTED_EDGE('',*,*,#553,.F.);
#876=ORIENTED_EDGE('',*,*,#509,.F.);
#877=ORIENTED_EDGE('',*,*,#610,.T.);
#878=ORIENTED_EDGE('',*,*,#555,.F.);
#879=ORIENTED_EDGE('',*,*,#612,.F.);
#880=ORIENTED_EDGE('',*,*,#490,.F.);
#881=ORIENTED_EDGE('',*,*,#612,.T.);
#882=ORIENTED_EDGE('',*,*,#554,.F.);
#883=ORIENTED_EDGE('',*,*,#611,.F.);
#884=ORIENTED_EDGE('',*,*,#491,.T.);
#885=PLANE('',#999);
#886=PLANE('',#1000);
#887=PLANE('',#1001);
#888=PLANE('',#1002);
#889=PLANE('',#1003);
#890=PLANE('',#1004);
#891=PLANE('',#1005);
#892=PLANE('',#1006);
#893=PLANE('',#1007);
#894=PLANE('',#1008);
#895=PLANE('',#1009);
#896=PLANE('',#1010);
#897=PLANE('',#1011);
#898=PLANE('',#1012);
#899=PLANE('',#1013);
#900=PLANE('',#1014);
#901=PLANE('',#1015);
#902=PLANE('',#1016);
#903=PLANE('',#1020);
#904=PLANE('',#1021);
#905=PLANE('',#1022);
#906=PLANE('',#1024);
#907=PLANE('',#1025);
#908=PLANE('',#1026);
#909=PLANE('',#1027);
#910=PLANE('',#1028);
#911=PLANE('',#1029);
#912=PLANE('',#1030);
#913=PLANE('',#1031);
#914=PLANE('',#1032);
#915=PLANE('',#1033);
#916=PLANE('',#1034);
#917=PLANE('',#1035);
#918=PLANE('',#1036);
#919=PLANE('',#1037);
#920=PLANE('',#1040);
#921=PLANE('',#1041);
#922=PLANE('',#1042);
#923=PLANE('',#1043);
#924=PLANE('',#1044);
#925=PLANE('',#1045);
#926=PLANE('',#1046);
#927=PLANE('',#1047);
#928=PLANE('',#1048);
#929=PLANE('',#1049);
#930=PLANE('',#1050);
#931=PLANE('',#1051);
#932=PLANE('',#1052);
#933=PLANE('',#1053);
#934=ADVANCED_FACE('',(#22),#885,.T.);
#935=ADVANCED_FACE('',(#23),#886,.F.);
#936=ADVANCED_FACE('',(#24),#887,.T.);
#937=ADVANCED_FACE('',(#25),#888,.T.);
#938=ADVANCED_FACE('',(#26),#889,.T.);
#939=ADVANCED_FACE('',(#27),#890,.T.);
#940=ADVANCED_FACE('',(#28),#891,.T.);
#941=ADVANCED_FACE('',(#29),#892,.T.);
#942=ADVANCED_FACE('',(#30),#893,.T.);
#943=ADVANCED_FACE('',(#31),#894,.T.);
#944=ADVANCED_FACE('',(#32),#895,.T.);
#945=ADVANCED_FACE('',(#33),#896,.T.);
#946=ADVANCED_FACE('',(#34),#897,.T.);
#947=ADVANCED_FACE('',(#35),#898,.T.);
#948=ADVANCED_FACE('',(#36),#899,.T.);
#949=ADVANCED_FACE('',(#37),#900,.T.);
#950=ADVANCED_FACE('',(#38),#901,.T.);
#951=ADVANCED_FACE('',(#39),#902,.T.);
#952=ADVANCED_FACE('',(#40),#20,.T.);
#953=ADVANCED_FACE('',(#41),#903,.T.);
#954=ADVANCED_FACE('',(#42),#904,.T.);
#955=ADVANCED_FACE('',(#43),#905,.T.);
#956=ADVANCED_FACE('',(#44),#906,.T.);
#957=ADVANCED_FACE('',(#45),#907,.T.);
#958=ADVANCED_FACE('',(#46),#908,.T.);
#959=ADVANCED_FACE('',(#47),#909,.T.);
#960=ADVANCED_FACE('',(#48),#910,.T.);
#961=ADVANCED_FACE('',(#49),#911,.T.);
#962=ADVANCED_FACE('',(#50),#912,.T.);
#963=ADVANCED_FACE('',(#51),#913,.T.);
#964=ADVANCED_FACE('',(#52),#914,.T.);
#965=ADVANCED_FACE('',(#53),#915,.T.);
#966=ADVANCED_FACE('',(#54),#916,.T.);
#967=ADVANCED_FACE('',(#55),#917,.T.);
#968=ADVANCED_FACE('',(#56),#918,.T.);
#969=ADVANCED_FACE('',(#57),#919,.T.);
#970=ADVANCED_FACE('',(#58),#21,.T.);
#971=ADVANCED_FACE('',(#59),#920,.T.);
#972=ADVANCED_FACE('',(#60,#15),#921,.F.);
#973=ADVANCED_FACE('',(#61),#922,.T.);
#974=ADVANCED_FACE('',(#62),#923,.T.);
#975=ADVANCED_FACE('',(#63),#924,.T.);
#976=ADVANCED_FACE('',(#64),#925,.T.);
#977=ADVANCED_FACE('',(#65),#926,.T.);
#978=ADVANCED_FACE('',(#66),#927,.T.);
#979=ADVANCED_FACE('',(#67),#928,.T.);
#980=ADVANCED_FACE('',(#68),#929,.T.);
#981=ADVANCED_FACE('',(#69),#930,.T.);
#982=ADVANCED_FACE('',(#70),#931,.T.);
#983=ADVANCED_FACE('',(#71),#932,.T.);
#984=ADVANCED_FACE('',(#72),#933,.T.);
#985=CLOSED_SHELL('',(#934,#935,#936,#937,#938,#939,#940,#941,#942,#943,
#944,#945,#946,#947,#948,#949,#950,#951,#952,#953,#954,#955,#956,#957,#958,
#959,#960,#961,#962,#963,#964,#965,#966,#967,#968,#969,#970,#971,#972,#973,
#974,#975,#976,#977,#978,#979,#980,#981,#982,#983,#984));
#986=DERIVED_UNIT_ELEMENT(#988,1.);
#987=DERIVED_UNIT_ELEMENT(#1579,-3.);
#988=(
MASS_UNIT()
NAMED_UNIT(*)
SI_UNIT(.KILO.,.GRAM.)
);
#989=DERIVED_UNIT((#986,#987));
#990=MEASURE_REPRESENTATION_ITEM('density measure',
POSITIVE_RATIO_MEASURE(7850.),#989);
#991=PROPERTY_DEFINITION_REPRESENTATION(#996,#993);
#992=PROPERTY_DEFINITION_REPRESENTATION(#997,#994);
#993=REPRESENTATION('material name',(#995),#1576);
#994=REPRESENTATION('density',(#990),#1576);
#995=DESCRIPTIVE_REPRESENTATION_ITEM('Steel','Steel');
#996=PROPERTY_DEFINITION('material property','material name',#1586);
#997=PROPERTY_DEFINITION('material property','density of part',#1586);
#998=AXIS2_PLACEMENT_3D('',#1298,#1054,#1055);
#999=AXIS2_PLACEMENT_3D('',#1299,#1056,#1057);
#1000=AXIS2_PLACEMENT_3D('',#1308,#1062,#1063);
#1001=AXIS2_PLACEMENT_3D('',#1350,#1085,#1086);
#1002=AXIS2_PLACEMENT_3D('',#1356,#1090,#1091);
#1003=AXIS2_PLACEMENT_3D('',#1360,#1094,#1095);
#1004=AXIS2_PLACEMENT_3D('',#1366,#1099,#1100);
#1005=AXIS2_PLACEMENT_3D('',#1372,#1104,#1105);
#1006=AXIS2_PLACEMENT_3D('',#1376,#1108,#1109);
#1007=AXIS2_PLACEMENT_3D('',#1380,#1112,#1113);
#1008=AXIS2_PLACEMENT_3D('',#1384,#1116,#1117);
#1009=AXIS2_PLACEMENT_3D('',#1388,#1120,#1121);
#1010=AXIS2_PLACEMENT_3D('',#1392,#1124,#1125);
#1011=AXIS2_PLACEMENT_3D('',#1401,#1130,#1131);
#1012=AXIS2_PLACEMENT_3D('',#1411,#1137,#1138);
#1013=AXIS2_PLACEMENT_3D('',#1417,#1142,#1143);
#1014=AXIS2_PLACEMENT_3D('',#1419,#1145,#1146);
#1015=AXIS2_PLACEMENT_3D('',#1423,#1149,#1150);
#1016=AXIS2_PLACEMENT_3D('',#1427,#1153,#1154);
#1017=AXIS2_PLACEMENT_3D('',#1429,#1156,#1157);
#1018=AXIS2_PLACEMENT_3D('',#1434,#1159,#1160);
#1019=AXIS2_PLACEMENT_3D('',#1437,#1162,#1163);
#1020=AXIS2_PLACEMENT_3D('',#1438,#1164,#1165);
#1021=AXIS2_PLACEMENT_3D('',#1443,#1169,#1170);
#1022=AXIS2_PLACEMENT_3D('',#1447,#1173,#1174);
#1023=AXIS2_PLACEMENT_3D('',#1452,#1176,#1177);
#1024=AXIS2_PLACEMENT_3D('',#1460,#1182,#1183);
#1025=AXIS2_PLACEMENT_3D('',#1466,#1187,#1188);
#1026=AXIS2_PLACEMENT_3D('',#1483,#1197,#1198);
#1027=AXIS2_PLACEMENT_3D('',#1500,#1207,#1208);
#1028=AXIS2_PLACEMENT_3D('',#1505,#1212,#1213);
#1029=AXIS2_PLACEMENT_3D('',#1509,#1216,#1217);
#1030=AXIS2_PLACEMENT_3D('',#1513,#1220,#1221);
#1031=AXIS2_PLACEMENT_3D('',#1517,#1224,#1225);
#1032=AXIS2_PLACEMENT_3D('',#1520,#1228,#1229);
#1033=AXIS2_PLACEMENT_3D('',#1525,#1233,#1234);
#1034=AXIS2_PLACEMENT_3D('',#1529,#1237,#1238);
#1035=AXIS2_PLACEMENT_3D('',#1533,#1241,#1242);
#1036=AXIS2_PLACEMENT_3D('',#1537,#1245,#1246);
#1037=AXIS2_PLACEMENT_3D('',#1540,#1249,#1250);
#1038=AXIS2_PLACEMENT_3D('',#1543,#1253,#1254);
#1039=AXIS2_PLACEMENT_3D('',#1546,#1255,#1256);
#1040=AXIS2_PLACEMENT_3D('',#1549,#1259,#1260);
#1041=AXIS2_PLACEMENT_3D('',#1552,#1263,#1264);
#1042=AXIS2_PLACEMENT_3D('',#1554,#1266,#1267);
#1043=AXIS2_PLACEMENT_3D('',#1556,#1269,#1270);
#1044=AXIS2_PLACEMENT_3D('',#1558,#1272,#1273);
#1045=AXIS2_PLACEMENT_3D('',#1559,#1274,#1275);
#1046=AXIS2_PLACEMENT_3D('',#1561,#1277,#1278);
#1047=AXIS2_PLACEMENT_3D('',#1563,#1280,#1281);
#1048=AXIS2_PLACEMENT_3D('',#1564,#1282,#1283);
#1049=AXIS2_PLACEMENT_3D('',#1566,#1285,#1286);
#1050=AXIS2_PLACEMENT_3D('',#1567,#1287,#1288);
#1051=AXIS2_PLACEMENT_3D('',#1569,#1290,#1291);
#1052=AXIS2_PLACEMENT_3D('',#1571,#1293,#1294);
#1053=AXIS2_PLACEMENT_3D('',#1573,#1296,#1297);
#1054=DIRECTION('axis',(0.,0.,1.));
#1055=DIRECTION('refdir',(1.,0.,0.));
#1056=DIRECTION('center_axis',(2.67542640644562E-16,1.,0.));
#1057=DIRECTION('ref_axis',(-1.,2.67542640644562E-16,0.));
#1058=DIRECTION('',(1.,-2.67542640644562E-16,0.));
#1059=DIRECTION('',(2.8421709430404E-14,-7.60401919264273E-30,-1.));
#1060=DIRECTION('',(-1.,2.67542640644562E-16,0.));
#1061=DIRECTION('',(-2.8510527272374E-14,7.62778175261973E-30,1.));
#1062=DIRECTION('center_axis',(0.,0.,1.));
#1063=DIRECTION('ref_axis',(-1.,0.,0.));
#1064=DIRECTION('',(1.,0.,2.8421709430404E-14));
#1065=DIRECTION('',(0.,1.,0.));
#1066=DIRECTION('',(0.,1.,0.));
#1067=DIRECTION('',(1.,0.,2.8421709430404E-14));
#1068=DIRECTION('',(0.,1.,0.));
#1069=DIRECTION('',(1.,-2.67542640644562E-16,0.));
#1070=DIRECTION('',(0.499999999999999,-0.866025403784439,0.));
#1071=DIRECTION('',(-0.5,-0.866025403784439,0.));
#1072=DIRECTION('',(-1.,5.26328010634228E-15,0.));
#1073=DIRECTION('',(0.,-1.,0.));
#1074=DIRECTION('',(-1.,0.,-2.8421709430404E-14));
#1075=DIRECTION('',(0.,-1.,0.));
#1076=DIRECTION('',(-1.,5.26328010634228E-15,0.));
#1077=DIRECTION('',(0.,-1.,0.));
#1078=DIRECTION('',(-1.,0.,-2.8421709430404E-14));
#1079=DIRECTION('',(0.,-1.,0.));
#1080=DIRECTION('',(-1.,5.26328010634228E-15,0.));
#1081=DIRECTION('',(-0.499999999999999,0.866025403784439,0.));
#1082=DIRECTION('',(0.5,0.866025403784439,0.));
#1083=DIRECTION('',(1.,-2.67542640644562E-16,0.));
#1084=DIRECTION('',(0.,1.,0.));
#1085=DIRECTION('center_axis',(-0.866025403784439,0.5,0.));
#1086=DIRECTION('ref_axis',(-0.5,-0.866025403784439,0.));
#1087=DIRECTION('',(0.,0.,-1.));
#1088=DIRECTION('',(-0.5,-0.866025403784439,0.));
#1089=DIRECTION('',(0.,0.,1.));
#1090=DIRECTION('center_axis',(-0.866025403784439,-0.499999999999999,0.));
#1091=DIRECTION('ref_axis',(0.499999999999999,-0.866025403784439,0.));
#1092=DIRECTION('',(0.,0.,1.));
#1093=DIRECTION('',(0.499999999999999,-0.866025403784439,0.));
#1094=DIRECTION('center_axis',(-5.26328010634228E-15,-1.,0.));
#1095=DIRECTION('ref_axis',(1.,-5.26328010634228E-15,0.));
#1096=DIRECTION('',(0.,0.,-1.));
#1097=DIRECTION('',(1.,-5.26328010634228E-15,0.));
#1098=DIRECTION('',(-2.8421709430404E-14,1.49591417833286E-28,1.));
#1099=DIRECTION('center_axis',(-5.26328010634228E-15,-1.,0.));
#1100=DIRECTION('ref_axis',(1.,-5.26328010634228E-15,0.));
#1101=DIRECTION('',(2.8510527272374E-14,-1.50058891014015E-28,-1.));
#1102=DIRECTION('',(1.,-5.26328010634228E-15,0.));
#1103=DIRECTION('',(-2.8421709430404E-14,1.49591417833286E-28,1.));
#1104=DIRECTION('center_axis',(-5.26328010634228E-15,-1.,0.));
#1105=DIRECTION('ref_axis',(1.,-5.26328010634228E-15,0.));
#1106=DIRECTION('',(2.8599345114344E-14,-1.50526364194744E-28,-1.));
#1107=DIRECTION('',(1.,-5.26328010634228E-15,0.));
#1108=DIRECTION('center_axis',(0.866025403784439,-0.5,0.));
#1109=DIRECTION('ref_axis',(0.5,0.866025403784439,0.));
#1110=DIRECTION('',(0.,0.,1.));
#1111=DIRECTION('',(0.5,0.866025403784439,0.));
#1112=DIRECTION('center_axis',(0.866025403784439,0.499999999999999,0.));
#1113=DIRECTION('ref_axis',(-0.499999999999999,0.866025403784439,0.));
#1114=DIRECTION('',(0.,0.,-1.));
#1115=DIRECTION('',(-0.499999999999999,0.866025403784439,0.));
#1116=DIRECTION('center_axis',(2.67542640644562E-16,1.,0.));
#1117=DIRECTION('ref_axis',(-1.,2.67542640644562E-16,0.));
#1118=DIRECTION('',(2.8421709430404E-14,-7.60401919264272E-30,-1.));
#1119=DIRECTION('',(-1.,2.67542640644562E-16,0.));
#1120=DIRECTION('center_axis',(2.67542640644562E-16,1.,0.));
#1121=DIRECTION('ref_axis',(-1.,2.67542640644562E-16,0.));
#1122=DIRECTION('',(-1.,2.67542640644562E-16,0.));
#1123=DIRECTION('',(-2.8599345114344E-14,7.65154431259675E-30,1.));
#1124=DIRECTION('center_axis',(0.86596202537637,-0.500109758559114,0.));
#1125=DIRECTION('ref_axis',(0.500109758559114,0.86596202537637,0.));
#1126=DIRECTION('',(0.,0.,1.));
#1127=DIRECTION('',(0.500109758559114,0.86596202537637,0.));
#1128=DIRECTION('',(0.,0.,1.));
#1129=DIRECTION('',(0.500109758559114,0.86596202537637,0.));
#1130=DIRECTION('center_axis',(0.,0.,1.));
#1131=DIRECTION('ref_axis',(1.,0.,0.));
#1132=DIRECTION('',(0.502593282106618,-0.864522985687076,0.));
#1133=DIRECTION('',(-1.,5.87164179048417E-17,0.));
#1134=DIRECTION('',(-0.502593282106618,-0.864522985687076,0.));
#1135=DIRECTION('',(0.500109758559114,-0.86596202537637,0.));
#1136=DIRECTION('',(1.,0.,0.));
#1137=DIRECTION('center_axis',(5.87164179048417E-17,1.,0.));
#1138=DIRECTION('ref_axis',(-1.,5.87164179048417E-17,0.));
#1139=DIRECTION('',(0.,0.,-1.));
#1140=DIRECTION('',(-1.,2.34865671619367E-16,0.));
#1141=DIRECTION('',(0.,0.,-1.));
#1142=DIRECTION('center_axis',(0.864522985687076,0.502593282106618,0.));
#1143=DIRECTION('ref_axis',(-0.502593282106618,0.864522985687076,0.));
#1144=DIRECTION('',(-0.502593282106618,0.864522985687076,0.));
#1145=DIRECTION('center_axis',(0.,-1.,0.));
#1146=DIRECTION('ref_axis',(1.,0.,0.));
#1147=DIRECTION('',(0.,0.,1.));
#1148=DIRECTION('',(1.,0.,0.));
#1149=DIRECTION('center_axis',(-0.864522985687076,0.502593282106618,0.));
#1150=DIRECTION('ref_axis',(-0.502593282106618,-0.864522985687076,0.));
#1151=DIRECTION('',(0.502593282106618,0.864522985687076,0.));
#1152=DIRECTION('',(0.,0.,1.));
#1153=DIRECTION('center_axis',(-0.86596202537637,-0.500109758559114,0.));
#1154=DIRECTION('ref_axis',(0.500109758559114,-0.86596202537637,0.));
#1155=DIRECTION('',(-0.500109758559114,0.86596202537637,0.));
#1156=DIRECTION('center_axis',(0.,0.,1.));
#1157=DIRECTION('ref_axis',(-1.,0.,0.));
#1158=DIRECTION('',(0.,0.,1.));
#1159=DIRECTION('center_axis',(0.,0.,-1.));
#1160=DIRECTION('ref_axis',(-1.,0.,0.));
#1161=DIRECTION('',(0.,0.,-1.));
#1162=DIRECTION('center_axis',(0.,0.,1.));
#1163=DIRECTION('ref_axis',(-1.,0.,0.));
#1164=DIRECTION('center_axis',(0.,1.,0.));
#1165=DIRECTION('ref_axis',(-1.,0.,0.));
#1166=DIRECTION('',(-2.8599345114344E-14,0.,1.));
#1167=DIRECTION('',(1.,0.,2.8421709430404E-14));
#1168=DIRECTION('',(1.,-5.26328010634228E-15,0.));
#1169=DIRECTION('center_axis',(1.,0.,2.8599345114344E-14));
#1170=DIRECTION('ref_axis',(-2.8599345114344E-14,0.,1.));
#1171=DIRECTION('',(2.85152018956356E-14,0.,-1.));
#1172=DIRECTION('',(0.,-1.,0.));
#1173=DIRECTION('center_axis',(2.8421709430404E-14,0.,-1.));
#1174=DIRECTION('ref_axis',(1.,0.,2.8421709430404E-14));
#1175=DIRECTION('',(1.,0.,2.8421709430404E-14));
#1176=DIRECTION('center_axis',(0.,0.,-1.));
#1177=DIRECTION('ref_axis',(-1.,0.,0.));
#1178=DIRECTION('',(1.,0.,2.8421709430404E-14));
#1179=DIRECTION('',(0.,-1.,0.));
#1180=DIRECTION('',(-1.,0.,-2.8421709430404E-14));
#1181=DIRECTION('',(0.,1.,0.));
#1182=DIRECTION('center_axis',(2.8421709430404E-14,0.,-1.));
#1183=DIRECTION('ref_axis',(1.,0.,2.8421709430404E-14));
#1184=DIRECTION('',(1.,0.,2.8421709430404E-14));
#1185=DIRECTION('',(-1.,0.,-2.8421709430404E-14));
#1186=DIRECTION('',(0.,1.,0.));
#1187=DIRECTION('center_axis',(2.83983363140961E-14,0.,-1.));
#1188=DIRECTION('ref_axis',(-1.,0.,-2.83983363140961E-14));
#1189=DIRECTION('',(-1.,3.5527136788005E-15,-2.8421709430404E-14));
#1190=DIRECTION('',(0.479975900755186,-0.877281673520112,1.36417355848603E-14));
#1191=DIRECTION('',(-1.,0.,-2.8421709430404E-14));
#1192=DIRECTION('',(0.542208834321819,0.840243762240086,1.54105019396928E-14));
#1193=DIRECTION('',(-1.,3.5527136788005E-15,-2.8421709430404E-14));
#1194=DIRECTION('',(6.89892587502075E-13,1.,1.96079266601735E-26));
#1195=DIRECTION('',(1.,0.,2.8421709430404E-14));
#1196=DIRECTION('',(-6.91002810526697E-13,-1.,-1.96394810963823E-26));
#1197=DIRECTION('center_axis',(2.85152018956356E-14,0.,-1.));
#1198=DIRECTION('ref_axis',(-1.,0.,-2.85152018956356E-14));
#1199=DIRECTION('',(-1.,0.,-2.8421709430404E-14));
#1200=DIRECTION('',(0.479975900755187,-0.877281673520111,1.36417355848604E-14));
#1201=DIRECTION('',(-1.,0.,-2.8421709430404E-14));
#1202=DIRECTION('',(0.542208834321819,0.840243762240086,1.54105019396928E-14));
#1203=DIRECTION('',(-1.,0.,-2.8421709430404E-14));
#1204=DIRECTION('',(0.,1.,0.));
#1205=DIRECTION('',(1.,0.,2.8421709430404E-14));
#1206=DIRECTION('',(-1.77635683940025E-15,-1.,-5.04870979341447E-29));
#1207=DIRECTION('center_axis',(-3.5527136788005E-15,-1.,0.));
#1208=DIRECTION('ref_axis',(-1.,3.5527136788005E-15,0.));
#1209=DIRECTION('',(0.,0.,-1.));
#1210=DIRECTION('',(1.,-3.5527136788005E-15,0.));
#1211=DIRECTION('',(0.,0.,-1.));
#1212=DIRECTION('center_axis',(-0.840243762240086,0.542208834321819,0.));
#1213=DIRECTION('ref_axis',(0.542208834321819,0.840243762240086,0.));
#1214=DIRECTION('',(0.,0.,-1.));
#1215=DIRECTION('',(-0.542208834321819,-0.840243762240086,0.));
#1216=DIRECTION('center_axis',(0.,-1.,0.));
#1217=DIRECTION('ref_axis',(-1.,0.,0.));
#1218=DIRECTION('',(0.,0.,-1.));
#1219=DIRECTION('',(1.,0.,0.));
#1220=DIRECTION('center_axis',(0.877281673520112,0.479975900755186,0.));
#1221=DIRECTION('ref_axis',(0.479975900755186,-0.877281673520112,0.));
#1222=DIRECTION('',(2.83983363140961E-14,0.,-1.));
#1223=DIRECTION('',(-0.479975900755186,0.877281673520112,0.));
#1224=DIRECTION('center_axis',(-3.5527136788005E-15,-1.,0.));
#1225=DIRECTION('ref_axis',(-1.,3.5527136788005E-15,0.));
#1226=DIRECTION('',(0.,0.,-1.));
#1227=DIRECTION('',(1.,-3.5527136788005E-15,0.));
#1228=DIRECTION('center_axis',(0.,-1.,0.));
#1229=DIRECTION('ref_axis',(-1.,0.,0.));
#1230=DIRECTION('',(0.,0.,-1.));
#1231=DIRECTION('',(1.,0.,0.));
#1232=DIRECTION('',(0.,0.,-1.));
#1233=DIRECTION('center_axis',(-0.840243762240086,0.542208834321819,0.));
#1234=DIRECTION('ref_axis',(0.542208834321819,0.840243762240086,0.));
#1235=DIRECTION('',(0.,0.,-1.));
#1236=DIRECTION('',(-0.542208834321819,-0.840243762240086,0.));
#1237=DIRECTION('center_axis',(0.,-1.,0.));
#1238=DIRECTION('ref_axis',(-1.,0.,0.));
#1239=DIRECTION('',(0.,0.,-1.));
#1240=DIRECTION('',(1.,0.,0.));
#1241=DIRECTION('center_axis',(0.877281673520111,0.479975900755187,0.));
#1242=DIRECTION('ref_axis',(0.479975900755187,-0.877281673520111,0.));
#1243=DIRECTION('',(2.85152018956356E-14,0.,-1.));
#1244=DIRECTION('',(-0.479975900755187,0.877281673520111,0.));
#1245=DIRECTION('center_axis',(0.,-1.,0.));
#1246=DIRECTION('ref_axis',(-1.,0.,0.));
#1247=DIRECTION('',(0.,0.,-1.));
#1248=DIRECTION('',(1.,0.,0.));
#1249=DIRECTION('center_axis',(0.,1.,0.));
#1250=DIRECTION('ref_axis',(-1.,0.,0.));
#1251=DIRECTION('',(2.8421709430404E-14,0.,-1.));
#1252=DIRECTION('',(1.,-5.26328010634228E-15,0.));
#1253=DIRECTION('center_axis',(0.,0.,1.));
#1254=DIRECTION('ref_axis',(-1.,0.,0.));
#1255=DIRECTION('center_axis',(0.,0.,1.));
#1256=DIRECTION('ref_axis',(-1.,0.,0.));
#1257=DIRECTION('',(0.,0.,1.));
#1258=DIRECTION('',(0.,0.,-1.));
#1259=DIRECTION('center_axis',(0.,1.,0.));
#1260=DIRECTION('ref_axis',(-1.,0.,0.));
#1261=DIRECTION('',(1.,-5.26328010634228E-15,0.));
#1262=DIRECTION('',(-2.8510527272374E-14,0.,1.));
#1263=DIRECTION('center_axis',(0.,0.,1.));
#1264=DIRECTION('ref_axis',(1.,0.,0.));
#1265=DIRECTION('',(1.,-5.26328010634228E-15,0.));
#1266=DIRECTION('center_axis',(1.,0.,2.8510527272374E-14));
#1267=DIRECTION('ref_axis',(2.8510527272374E-14,0.,-1.));
#1268=DIRECTION('',(2.8510527272374E-14,0.,-1.));
#1269=DIRECTION('center_axis',(-1.,0.,-2.8421709430404E-14));
#1270=DIRECTION('ref_axis',(-2.8421709430404E-14,0.,1.));
#1271=DIRECTION('',(-2.8421709430404E-14,0.,1.));
#1272=DIRECTION('center_axis',(0.,1.,0.));
#1273=DIRECTION('ref_axis',(0.,0.,1.));
#1274=DIRECTION('center_axis',(1.,0.,2.8599345114344E-14));
#1275=DIRECTION('ref_axis',(2.8599345114344E-14,0.,-1.));
#1276=DIRECTION('',(2.8599345114344E-14,0.,-1.));
#1277=DIRECTION('center_axis',(-1.,0.,-2.8421709430404E-14));
#1278=DIRECTION('ref_axis',(-2.8421709430404E-14,0.,1.));
#1279=DIRECTION('',(-2.8421709430404E-14,0.,1.));
#1280=DIRECTION('center_axis',(0.,1.,0.));
#1281=DIRECTION('ref_axis',(0.,0.,1.));
#1282=DIRECTION('center_axis',(-1.,0.,-2.8421709430404E-14));
#1283=DIRECTION('ref_axis',(2.8421709430404E-14,0.,-1.));
#1284=DIRECTION('',(2.8421709430404E-14,0.,-1.));
#1285=DIRECTION('center_axis',(0.,-1.,0.));
#1286=DIRECTION('ref_axis',(0.,0.,-1.));
#1287=DIRECTION('center_axis',(0.,1.,0.));
#1288=DIRECTION('ref_axis',(-1.,0.,0.));
#1289=DIRECTION('',(2.8421709430404E-14,0.,-1.));
#1290=DIRECTION('center_axis',(1.,0.,2.8510527272374E-14));
#1291=DIRECTION('ref_axis',(-2.8510527272374E-14,0.,1.));
#1292=DIRECTION('',(2.83983363140961E-14,0.,-1.));
#1293=DIRECTION('center_axis',(-1.,0.,-2.8421709430404E-14));
#1294=DIRECTION('ref_axis',(2.8421709430404E-14,0.,-1.));
#1295=DIRECTION('',(2.8421709430404E-14,0.,-1.));
#1296=DIRECTION('center_axis',(0.,-1.,0.));
#1297=DIRECTION('ref_axis',(0.,0.,-1.));
#1298=CARTESIAN_POINT('',(0.,0.,0.));
#1299=CARTESIAN_POINT('Origin',(5.90187879126012,8.77533978322315,31.65));
#1300=CARTESIAN_POINT('',(1.26235084490852,8.77533978322315,41.1500000000001));
#1301=CARTESIAN_POINT('',(3.90187879126005,8.77533978322315,41.15));
#1302=CARTESIAN_POINT('',(3.33211481808432,8.77533978322315,41.15));
#1303=CARTESIAN_POINT('',(3.9018787912601,8.77533978322315,39.25));
#1304=CARTESIAN_POINT('',(3.90187879126025,8.77533978322315,33.9));
#1305=CARTESIAN_POINT('',(1.26235084490858,8.77533978322315,39.25));
#1306=CARTESIAN_POINT('',(4.1428016958619,8.77533978322315,39.25));
#1307=CARTESIAN_POINT('',(1.26235084490866,8.77533978322315,36.4));
#1308=CARTESIAN_POINT('Origin',(2.58211481808435,14.5253402832231,41.15));
#1309=CARTESIAN_POINT('',(3.90187879126005,9.27533978322314,41.15));
#1310=CARTESIAN_POINT('',(4.40187879126004,9.27533978322314,41.15));
#1311=CARTESIAN_POINT('',(4.40187879126004,9.27533978322314,41.15));
#1312=CARTESIAN_POINT('',(3.90187879126005,8.77533978322315,41.15));
#1313=CARTESIAN_POINT('',(1.26235084490852,9.27533978322314,41.1500000000001));
#1314=CARTESIAN_POINT('',(1.26235084490852,8.77533978322315,41.1500000000001));
#1315=CARTESIAN_POINT('',(0.762350844908521,9.27533978322314,41.15));
#1316=CARTESIAN_POINT('',(1.26235084490852,9.27533978322314,41.1500000000001));
#1317=CARTESIAN_POINT('',(0.762350844908521,8.77533978322315,41.15));
#1318=CARTESIAN_POINT('',(0.762350844908521,8.77533978322315,41.15));
#1319=CARTESIAN_POINT('',(-0.737649155091415,8.77533978322315,41.15));
#1320=CARTESIAN_POINT('',(4.24199680467223,8.77533978322315,41.15));
#1321=CARTESIAN_POINT('',(-4.05741312826717,14.5253396539003,41.15));
#1322=CARTESIAN_POINT('',(-1.56759028463775,10.2128399868885,41.15));
#1323=CARTESIAN_POINT('',(-0.737649155091422,20.2753395245774,41.15));
#1324=CARTESIAN_POINT('',(-3.22747199872083,15.9628398575656,41.15));
#1325=CARTESIAN_POINT('',(0.762350844908521,20.2753397832231,41.15));
#1326=CARTESIAN_POINT('',(0.922232831496479,20.2753395245774,41.15));
#1327=CARTESIAN_POINT('',(0.762350844908521,19.7753397832231,41.15));
#1328=CARTESIAN_POINT('',(0.762350844908521,20.2753397832231,41.15));
#1329=CARTESIAN_POINT('',(1.26235084490852,19.7753397832231,41.1500000000001));
#1330=CARTESIAN_POINT('',(1.26235084490852,19.7753397832231,41.1500000000001));
#1331=CARTESIAN_POINT('',(1.26235084490852,20.2753397832231,41.1500000000001));
#1332=CARTESIAN_POINT('',(1.26235084490852,20.2753397832231,41.1500000000001));
#1333=CARTESIAN_POINT('',(3.90187879126005,20.2753397832231,41.15));
#1334=CARTESIAN_POINT('',(0.922232831496479,20.2753395245774,41.15));
#1335=CARTESIAN_POINT('',(3.90187879126005,19.7753397832231,41.15));
#1336=CARTESIAN_POINT('',(3.90187879126005,20.2753397832231,41.15));
#1337=CARTESIAN_POINT('',(4.40187879126004,19.7753397832231,41.15));
#1338=CARTESIAN_POINT('',(4.40187879126004,19.7753397832231,41.15));
#1339=CARTESIAN_POINT('',(4.40187879126004,20.2753397832231,41.15));
#1340=CARTESIAN_POINT('',(4.40187879126004,20.2753397832231,41.15));
#1341=CARTESIAN_POINT('',(5.9018787912601,20.2753395245774,41.15));
#1342=CARTESIAN_POINT('',(0.922232831496479,20.2753395245774,41.15));
#1343=CARTESIAN_POINT('',(9.22164276443587,14.5253396539003,41.15));
#1344=CARTESIAN_POINT('',(6.73181964830166,18.8378397929042,41.15));
#1345=CARTESIAN_POINT('',(5.90187879126011,8.77533978322315,41.15));
#1346=CARTESIAN_POINT('',(8.39170190739433,13.0878399222271,41.15));
#1347=CARTESIAN_POINT('',(4.40187879126004,8.77533978322315,41.15));
#1348=CARTESIAN_POINT('',(4.24199680467223,8.77533978322315,41.15));
#1349=CARTESIAN_POINT('',(4.40187879126004,8.77533978322315,41.15));
#1350=CARTESIAN_POINT('Origin',(9.22164276443587,14.5253396539003,31.6500000000001));
#1351=CARTESIAN_POINT('',(9.22164276443587,14.5253396539003,39.25));
#1352=CARTESIAN_POINT('',(9.22164276443587,14.5253396539003,40.1500000000001));
#1353=CARTESIAN_POINT('',(5.90187879126012,8.77533978322315,39.25));
#1354=CARTESIAN_POINT('',(8.38140633129317,13.0700074613267,39.25));
#1355=CARTESIAN_POINT('',(5.90187879126012,8.77533978322315,31.6500000000001));
#1356=CARTESIAN_POINT('Origin',(5.90187879126012,20.2753395245774,31.6500000000001));
#1357=CARTESIAN_POINT('',(5.90187879126012,20.2753395245774,39.25));
#1358=CARTESIAN_POINT('',(5.90187879126012,20.2753395245774,31.6500000000001));
#1359=CARTESIAN_POINT('',(6.69251766999765,18.9059128161647,39.25));
#1360=CARTESIAN_POINT('Origin',(-0.737649155091422,20.2753395245774,31.65));
#1361=CARTESIAN_POINT('',(-0.737649155091402,20.2753395245774,39.25));
#1362=CARTESIAN_POINT('',(-0.737649155091402,20.2753395245774,31.65));
#1363=CARTESIAN_POINT('',(0.762350844908575,20.2753397832231,39.25));
#1364=CARTESIAN_POINT('',(0.823037722686148,20.2753395245774,39.25));
#1365=CARTESIAN_POINT('',(0.762350844908656,20.2753395245774,36.4));
#1366=CARTESIAN_POINT('Origin',(-0.737649155091422,20.2753395245774,31.65));
#1367=CARTESIAN_POINT('',(1.26235084490858,20.2753397832231,39.25));
#1368=CARTESIAN_POINT('',(1.26235084490873,20.2753395245774,33.9000000000001));
#1369=CARTESIAN_POINT('',(3.9018787912601,20.2753395245774,39.25));
#1370=CARTESIAN_POINT('',(0.823037722686148,20.2753395245774,39.25));
#1371=CARTESIAN_POINT('',(3.90187879126018,20.2753395245774,36.4000000000001));
#1372=CARTESIAN_POINT('Origin',(-0.737649155091422,20.2753395245774,31.65));
#1373=CARTESIAN_POINT('',(4.4018787912601,20.2753395245774,39.25));
#1374=CARTESIAN_POINT('',(4.40187879126025,20.2753395245774,33.9000000000001));
#1375=CARTESIAN_POINT('',(0.823037722686148,20.2753395245774,39.25));
#1376=CARTESIAN_POINT('Origin',(-4.05741312826717,14.5253396539003,31.65));
#1377=CARTESIAN_POINT('',(-4.05741312826717,14.5253396539003,39.25));
#1378=CARTESIAN_POINT('',(-4.05741312826717,14.5253396539003,31.65));
#1379=CARTESIAN_POINT('',(-3.23776757482199,15.9450073966653,39.25));
#1380=CARTESIAN_POINT('Origin',(-0.737649155091409,8.77533978322315,31.65));
#1381=CARTESIAN_POINT('',(-0.737649155091409,8.77533978322315,39.25));
#1382=CARTESIAN_POINT('',(-0.737649155091409,8.77533978322315,31.65));
#1383=CARTESIAN_POINT('',(-1.60689226294176,10.280913010149,39.25));
#1384=CARTESIAN_POINT('Origin',(5.90187879126012,8.77533978322315,31.65));
#1385=CARTESIAN_POINT('',(0.762350844908576,8.77533978322315,39.25));
#1386=CARTESIAN_POINT('',(0.762350844908728,8.77533978322315,33.8999999999999));
#1387=CARTESIAN_POINT('',(4.1428016958619,8.77533978322315,39.25));
#1388=CARTESIAN_POINT('Origin',(5.90187879126012,8.77533978322315,31.65));
#1389=CARTESIAN_POINT('',(4.4018787912601,8.77533978322315,39.25));
#1390=CARTESIAN_POINT('',(4.1428016958619,8.77533978322315,39.25));
#1391=CARTESIAN_POINT('',(4.40187879126018,8.77533978322315,36.4));
#1392=CARTESIAN_POINT('Origin',(6.32473504447267,7.9866046335679,31.6500000000001));
#1393=CARTESIAN_POINT('',(6.32473504447267,7.9866046335679,39.25));
#1394=CARTESIAN_POINT('',(6.32473504447267,7.9866046335679,42.15));
#1395=CARTESIAN_POINT('',(6.32473504447256,7.98660463356772,36.4000000000001));
#1396=CARTESIAN_POINT('',(10.0863503958869,14.5000069270615,39.25));
#1397=CARTESIAN_POINT('',(7.2622826930107,9.61000958961993,39.25));
#1398=CARTESIAN_POINT('',(10.0863503958869,14.5000069270615,42.15));
#1399=CARTESIAN_POINT('',(10.0863503958869,14.5000069270615,31.6500000000001));
#1400=CARTESIAN_POINT('',(7.28317411013832,9.64618399649601,42.15));
#1401=CARTESIAN_POINT('Origin',(2.65702242640665,14.5309721439764,42.15));
#1402=CARTESIAN_POINT('',(6.26375908127639,21.0753396543849,42.15));
#1403=CARTESIAN_POINT('',(9.14129899981669,16.1256129262778,42.15));
#1404=CARTESIAN_POINT('',(-1.0995294451077,21.0753396543849,42.15));
#1405=CARTESIAN_POINT('',(6.4637590812764,21.0753396543849,42.15));
#1406=CARTESIAN_POINT('',(-4.92212075971815,14.5000069270615,42.15));
#1407=CARTESIAN_POINT('',(-1.0995294451077,21.0753396543849,42.15));
#1408=CARTESIAN_POINT('',(-1.16050540830397,7.9866046335679,42.15));
#1409=CARTESIAN_POINT('',(-4.92212075971815,14.5000069270615,42.15));
#1410=CARTESIAN_POINT('',(-1.16050540830397,7.9866046335679,42.15));
#1411=CARTESIAN_POINT('Origin',(6.4637590812764,21.0753396543849,41.15));
#1412=CARTESIAN_POINT('',(6.2637590812764,21.0753396543849,39.25));
#1413=CARTESIAN_POINT('',(6.2637590812764,21.0753396543849,31.6500000000001));
#1414=CARTESIAN_POINT('',(-1.0995294451077,21.0753396543849,39.25));
#1415=CARTESIAN_POINT('',(4.32374184087004,21.0753396543849,39.25));
#1416=CARTESIAN_POINT('',(-1.0995294451077,21.0753396543849,41.15));
#1417=CARTESIAN_POINT('Origin',(10.0863503958869,14.5000069270615,31.6500000000001));
#1418=CARTESIAN_POINT('',(9.09345188325217,16.2079159206503,39.25));
#1419=CARTESIAN_POINT('Origin',(-1.16050540830397,7.9866046335679,41.15));
#1420=CARTESIAN_POINT('',(-1.16050540830397,7.9866046335679,39.25));
#1421=CARTESIAN_POINT('',(-1.16050540830397,7.9866046335679,31.65));
#1422=CARTESIAN_POINT('',(0.611609596079859,7.9866046335679,39.25));
#1423=CARTESIAN_POINT('Origin',(-1.0995294451077,21.0753396543849,41.15));
#1424=CARTESIAN_POINT('',(-4.92212075971815,14.5000069270615,39.25));
#1425=CARTESIAN_POINT('',(-2.06803996018134,19.4093810513346,39.25));
#1426=CARTESIAN_POINT('',(-4.92212075971815,14.5000069270615,41.15));
#1427=CARTESIAN_POINT('Origin',(-4.92212075971815,14.5000069270615,41.15));
#1428=CARTESIAN_POINT('',(-4.02848006436868,12.9526287900438,39.25));
#1429=CARTESIAN_POINT('Origin',(4.15187879126019,20.2753397832231,36.15));
#1430=CARTESIAN_POINT('',(4.30187879126024,20.2753397832231,34.25));
#1431=CARTESIAN_POINT('',(4.30187879126019,20.2753397832231,39.25));
#1432=CARTESIAN_POINT('',(4.30187879126019,20.2753397832231,36.15));
#1433=CARTESIAN_POINT('',(4.00187879126024,20.2753397832231,34.25));
#1434=CARTESIAN_POINT('Origin',(4.15187879126024,20.2753397832231,34.25));
#1435=CARTESIAN_POINT('',(4.00187879126019,20.2753397832231,39.25));
#1436=CARTESIAN_POINT('',(4.00187879126019,20.2753397832231,36.15));
#1437=CARTESIAN_POINT('Origin',(4.15187879126019,20.2753397832231,39.25));
#1438=CARTESIAN_POINT('Origin',(4.15187879126012,20.2753397832231,38.65));
#1439=CARTESIAN_POINT('',(4.40187879126024,20.2753397832231,34.25));
#1440=CARTESIAN_POINT('',(4.40187879126019,20.2753397832231,36.15));
#1441=CARTESIAN_POINT('',(3.90187879126024,20.2753397832231,34.25));
#1442=CARTESIAN_POINT('',(0.823037722686148,20.2753395245774,39.25));
#1443=CARTESIAN_POINT('Origin',(4.40187879126019,20.2753397832231,36.15));
#1444=CARTESIAN_POINT('',(4.40187879126024,19.7753397832231,34.25));
#1445=CARTESIAN_POINT('',(4.40187879126019,19.7753397832231,36.15));
#1446=CARTESIAN_POINT('',(4.40187879126024,20.2753397832231,34.25));
#1447=CARTESIAN_POINT('Origin',(0.762350844908717,20.2753397832231,34.25));
#1448=CARTESIAN_POINT('',(0.762350844908717,20.2753397832231,34.25));
#1449=CARTESIAN_POINT('',(0.862350844908717,20.2753397832231,34.25));
#1450=CARTESIAN_POINT('',(0.762350844908717,20.2753397832231,34.25));
#1451=CARTESIAN_POINT('',(1.16235084490872,20.2753397832231,34.25));
#1452=CARTESIAN_POINT('Origin',(1.01235084490872,20.2753397832231,34.25));
#1453=CARTESIAN_POINT('',(1.26235084490872,20.2753397832231,34.25));
#1454=CARTESIAN_POINT('',(0.762350844908717,20.2753397832231,34.25));
#1455=CARTESIAN_POINT('',(1.26235084490872,19.7753397832231,34.25));
#1456=CARTESIAN_POINT('',(1.26235084490872,20.2753397832231,34.25));
#1457=CARTESIAN_POINT('',(0.762350844908717,19.7753397832231,34.25));
#1458=CARTESIAN_POINT('',(0.762350844908717,19.7753397832231,34.25));
#1459=CARTESIAN_POINT('',(0.762350844908717,20.2753397832231,34.25));
#1460=CARTESIAN_POINT('Origin',(3.90187879126024,20.2753397832231,34.25));
#1461=CARTESIAN_POINT('',(3.90187879126024,20.2753397832231,34.25));
#1462=CARTESIAN_POINT('',(3.90187879126024,20.2753397832231,34.25));
#1463=CARTESIAN_POINT('',(3.90187879126024,19.7753397832231,34.25));
#1464=CARTESIAN_POINT('',(3.90187879126024,19.7753397832231,34.25));
#1465=CARTESIAN_POINT('',(3.90187879126024,20.2753397832231,34.25));
#1466=CARTESIAN_POINT('Origin',(2.58211481808439,8.89954482902669,34.25));
#1467=CARTESIAN_POINT('',(1.26235084490863,8.77533978322315,34.2499999999999));
#1468=CARTESIAN_POINT('',(1.12470167640696,8.77533978322315,34.2499999999999));
#1469=CARTESIAN_POINT('',(1.92223283149655,8.77533978322314,34.2499999999999));
#1470=CARTESIAN_POINT('',(1.26235084490863,8.52374987483025,34.2499999999999));
#1471=CARTESIAN_POINT('',(1.2664290503791,8.51629588617277,34.2499999999999));
#1472=CARTESIAN_POINT('',(0.76235084490863,8.52374987483025,34.2499999999999));
#1473=CARTESIAN_POINT('',(1.92223283149655,8.52374987483025,34.2499999999999));
#1474=CARTESIAN_POINT('',(0.924701673426731,8.77533978322315,34.2499999999999));
#1475=CARTESIAN_POINT('',(1.11545119123298,9.07093823596225,34.2499999999999));
#1476=CARTESIAN_POINT('',(0.76235084490863,8.77533978322315,34.2499999999999));
#1477=CARTESIAN_POINT('',(1.75340824575561,8.77533978322314,34.2499999999999));
#1478=CARTESIAN_POINT('',(0.762350844908975,9.27533978322314,34.2499999999999));
#1479=CARTESIAN_POINT('',(0.762350844908672,8.83744230612555,34.2499999999999));
#1480=CARTESIAN_POINT('',(1.26235084490898,9.27533978322314,34.2499999999999));
#1481=CARTESIAN_POINT('',(1.67223283149673,9.27533978322314,34.2499999999999));
#1482=CARTESIAN_POINT('',(1.26235084490885,9.08744230612538,34.2499999999999));
#1483=CARTESIAN_POINT('Origin',(2.58211481808439,8.89954482902669,34.25));
#1484=CARTESIAN_POINT('',(4.40187879126015,8.77533978322315,34.25));
#1485=CARTESIAN_POINT('',(4.26422962275849,8.77533978322315,34.25));
#1486=CARTESIAN_POINT('',(3.49199680467232,8.77533978322315,34.25));
#1487=CARTESIAN_POINT('',(4.40187879126015,8.52374987483025,34.25));
#1488=CARTESIAN_POINT('',(4.04431969332049,9.17728277789749,34.25));
#1489=CARTESIAN_POINT('',(3.90187879126015,8.52374987483025,34.25));
#1490=CARTESIAN_POINT('',(3.49199680467232,8.52374987483025,34.25));
#1491=CARTESIAN_POINT('',(4.06422961977825,8.77533978322315,34.25));
#1492=CARTESIAN_POINT('',(3.79348356778359,8.35577324918799,34.25));
#1493=CARTESIAN_POINT('',(3.90187879126015,8.77533978322315,34.25));
#1494=CARTESIAN_POINT('',(3.32317221893137,8.77533978322315,34.25));
#1495=CARTESIAN_POINT('',(3.90187879126015,9.27533978322314,34.25));
#1496=CARTESIAN_POINT('',(3.90187879126015,8.83744230612492,34.25));
#1497=CARTESIAN_POINT('',(4.40187879126015,9.27533978322314,34.25));
#1498=CARTESIAN_POINT('',(3.24199680467232,9.27533978322314,34.25));
#1499=CARTESIAN_POINT('',(4.40187879126015,9.08744230612492,34.25));
#1500=CARTESIAN_POINT('Origin',(0.924701673426677,8.77533978322315,39.25));
#1501=CARTESIAN_POINT('',(0.924701673426677,8.77533978322315,39.25));
#1502=CARTESIAN_POINT('',(0.924701673426677,8.77533978322315,39.25));
#1503=CARTESIAN_POINT('',(1.65421313694517,8.77533978322314,39.25));
#1504=CARTESIAN_POINT('',(0.762350844908576,8.77533978322315,39.25));
#1505=CARTESIAN_POINT('Origin',(0.762350844908576,8.52374987483025,39.25));
#1506=CARTESIAN_POINT('',(0.762350844908576,8.52374987483025,39.25));
#1507=CARTESIAN_POINT('',(0.762350844908576,8.52374987483025,39.25));
#1508=CARTESIAN_POINT('',(2.38306939623002,11.0353257970447,39.25));
#1509=CARTESIAN_POINT('Origin',(1.26235084490858,8.52374987483025,39.25));
#1510=CARTESIAN_POINT('',(1.26235084490858,8.52374987483025,39.25));
#1511=CARTESIAN_POINT('',(1.26235084490858,8.52374987483025,39.25));
#1512=CARTESIAN_POINT('',(1.82303772268613,8.52374987483025,39.25));
#1513=CARTESIAN_POINT('Origin',(1.12470167640691,8.77533978322315,39.25));
#1514=CARTESIAN_POINT('',(1.12470167640691,8.77533978322315,39.25));
#1515=CARTESIAN_POINT('',(1.12470167640691,8.77533978322315,36.1499999999999));
#1516=CARTESIAN_POINT('',(0.0450351899638808,10.7487130725488,39.25));
#1517=CARTESIAN_POINT('Origin',(1.26235084490858,8.77533978322315,39.25));
#1518=CARTESIAN_POINT('',(1.26235084490858,8.77533978322315,39.25));
#1519=CARTESIAN_POINT('',(1.82303772268612,8.77533978322314,39.25));
#1520=CARTESIAN_POINT('Origin',(4.0642296197782,8.77533978322315,39.25));
#1521=CARTESIAN_POINT('',(4.0642296197782,8.77533978322315,39.25));
#1522=CARTESIAN_POINT('',(4.0642296197782,8.77533978322315,39.25));
#1523=CARTESIAN_POINT('',(3.22397711012094,8.77533978322315,39.25));
#1524=CARTESIAN_POINT('',(3.9018787912601,8.77533978322315,39.25));
#1525=CARTESIAN_POINT('Origin',(3.9018787912601,8.52374987483025,39.25));
#1526=CARTESIAN_POINT('',(3.9018787912601,8.52374987483025,39.25));
#1527=CARTESIAN_POINT('',(3.9018787912601,8.52374987483025,39.25));
#1528=CARTESIAN_POINT('',(5.06110177278063,10.3201608102704,39.25));
#1529=CARTESIAN_POINT('Origin',(4.4018787912601,8.52374987483025,39.25));
#1530=CARTESIAN_POINT('',(4.4018787912601,8.52374987483025,39.25));
#1531=CARTESIAN_POINT('',(4.4018787912601,8.52374987483025,39.25));
#1532=CARTESIAN_POINT('',(3.39280169586189,8.52374987483025,39.25));
#1533=CARTESIAN_POINT('Origin',(4.26422962275843,8.77533978322315,39.25));
#1534=CARTESIAN_POINT('',(4.26422962275843,8.77533978322315,39.25));
#1535=CARTESIAN_POINT('',(4.26422962275843,8.77533978322315,36.15));
#1536=CARTESIAN_POINT('',(2.82292583290526,11.4096999642735,39.25));
#1537=CARTESIAN_POINT('Origin',(4.4018787912601,8.77533978322315,39.25));
#1538=CARTESIAN_POINT('',(4.4018787912601,8.77533978322315,39.25));
#1539=CARTESIAN_POINT('',(3.39280169586189,8.77533978322315,39.25));
#1540=CARTESIAN_POINT('Origin',(4.15187879126012,20.2753397832231,38.65));
#1541=CARTESIAN_POINT('',(3.90187879126005,20.2753397832231,41.15));
#1542=CARTESIAN_POINT('',(0.823037722686148,20.2753395245774,39.25));
#1543=CARTESIAN_POINT('Origin',(1.01235084490866,20.2753397832231,36.15));
#1544=CARTESIAN_POINT('',(1.16235084490866,20.2753397832231,39.25));
#1545=CARTESIAN_POINT('',(0.862350844908663,20.2753397832231,39.25));
#1546=CARTESIAN_POINT('Origin',(1.01235084490866,20.2753397832231,39.25));
#1547=CARTESIAN_POINT('',(1.16235084490866,20.2753397832231,36.15));
#1548=CARTESIAN_POINT('',(0.862350844908663,20.2753397832231,36.15));
#1549=CARTESIAN_POINT('Origin',(1.01235084490859,20.2753397832231,38.65));
#1550=CARTESIAN_POINT('',(0.823037722686148,20.2753395245774,39.25));
#1551=CARTESIAN_POINT('',(1.26235084490866,20.2753397832231,36.15));
#1552=CARTESIAN_POINT('Origin',(2.38372460046369,14.5923276997033,39.25));
#1553=CARTESIAN_POINT('',(0.823037722686148,20.2753395245774,39.25));
#1554=CARTESIAN_POINT('Origin',(1.26235084490852,8.77533978322315,41.1500000000001));
#1555=CARTESIAN_POINT('',(1.26235084490866,9.27533978322314,36.15));
#1556=CARTESIAN_POINT('Origin',(0.762350844908663,8.77533978322315,36.15));
#1557=CARTESIAN_POINT('',(0.762350844908521,9.27533978322314,41.15));
#1558=CARTESIAN_POINT('Origin',(1.01235084490859,9.27533978322314,38.65));
#1559=CARTESIAN_POINT('Origin',(4.40187879126004,8.77533978322315,41.15));
#1560=CARTESIAN_POINT('',(4.40187879126019,9.27533978322314,36.15));
#1561=CARTESIAN_POINT('Origin',(3.90187879126019,8.77533978322315,36.15));
#1562=CARTESIAN_POINT('',(3.90187879126005,9.27533978322314,41.15));
#1563=CARTESIAN_POINT('Origin',(4.15187879126012,9.27533978322314,38.65));
#1564=CARTESIAN_POINT('Origin',(3.90187879126005,20.2753397832231,41.15));
#1565=CARTESIAN_POINT('',(3.90187879126005,19.7753397832231,41.15));
#1566=CARTESIAN_POINT('Origin',(4.15187879126012,19.7753397832231,38.65));
#1567=CARTESIAN_POINT('Origin',(1.01235084490859,20.2753397832231,38.65));
#1568=CARTESIAN_POINT('',(0.762350844908521,20.2753397832231,41.15));
#1569=CARTESIAN_POINT('Origin',(1.26235084490866,20.2753397832231,36.15));
#1570=CARTESIAN_POINT('',(1.26235084490866,19.7753397832231,36.15));
#1571=CARTESIAN_POINT('Origin',(0.762350844908521,20.2753397832231,41.15));
#1572=CARTESIAN_POINT('',(0.762350844908521,19.7753397832231,41.15));
#1573=CARTESIAN_POINT('Origin',(1.01235084490859,19.7753397832231,38.65));
#1574=UNCERTAINTY_MEASURE_WITH_UNIT(LENGTH_MEASURE(0.001),#1578,
'DISTANCE_ACCURACY_VALUE',
'Maximum model space distance between geometric entities at asserted c
onnectivities');
#1575=UNCERTAINTY_MEASURE_WITH_UNIT(LENGTH_MEASURE(0.001),#1578,
'DISTANCE_ACCURACY_VALUE',
'Maximum model space distance between geometric entities at asserted c
onnectivities');
#1576=(
GEOMETRIC_REPRESENTATION_CONTEXT(3)
GLOBAL_UNCERTAINTY_ASSIGNED_CONTEXT((#1574))
GLOBAL_UNIT_ASSIGNED_CONTEXT((#1578,#1580,#1581))
REPRESENTATION_CONTEXT('','3D')
);
#1577=(
GEOMETRIC_REPRESENTATION_CONTEXT(3)
GLOBAL_UNCERTAINTY_ASSIGNED_CONTEXT((#1575))
GLOBAL_UNIT_ASSIGNED_CONTEXT((#1578,#1580,#1581))
REPRESENTATION_CONTEXT('','3D')
);
#1578=(
LENGTH_UNIT()
NAMED_UNIT(*)
SI_UNIT(.CENTI.,.METRE.)
);
#1579=(
LENGTH_UNIT()
NAMED_UNIT(*)
SI_UNIT($,.METRE.)
);
#1580=(
NAMED_UNIT(*)
PLANE_ANGLE_UNIT()
SI_UNIT($,.RADIAN.)
);
#1581=(
NAMED_UNIT(*)
SI_UNIT($,.STERADIAN.)
SOLID_ANGLE_UNIT()
);
#1582=SHAPE_DEFINITION_REPRESENTATION(#1583,#1584);
#1583=PRODUCT_DEFINITION_SHAPE('',$,#1586);
#1584=SHAPE_REPRESENTATION('',(#998),#1576);
#1585=PRODUCT_DEFINITION_CONTEXT('part definition',#1590,'design');
#1586=PRODUCT_DEFINITION('2026-08-04-01-13-26-536','FusionComponent',#1587,
#1585);
#1587=PRODUCT_DEFINITION_FORMATION('',$,#1592);
#1588=PRODUCT_RELATED_PRODUCT_CATEGORY('FusionComponent',
'FusionComponent',(#1592));
#1589=APPLICATION_PROTOCOL_DEFINITION('international standard',
'automotive_design',2009,#1590);
#1590=APPLICATION_CONTEXT(
'Core Data for Automotive Mechanical Design Process');
#1591=PRODUCT_CONTEXT('part definition',#1590,'mechanical');
#1592=PRODUCT('2026-08-04-01-13-26-536','FusionComponent',$,(#1591));
#1593=PRESENTATION_STYLE_ASSIGNMENT((#1594));
#1594=SURFACE_STYLE_USAGE(.BOTH.,#1595);
#1595=SURFACE_SIDE_STYLE('',(#1596));
#1596=SURFACE_STYLE_FILL_AREA(#1597);
#1597=FILL_AREA_STYLE('Steel - Satin',(#1598));
#1598=FILL_AREA_STYLE_COLOUR('Steel - Satin',#1599);
#1599=COLOUR_RGB('Steel - Satin',0.627450980392157,0.627450980392157,0.627450980392157);
ENDSEC;
END-ISO-10303-21;
