ISO-10303-21;
HEADER;
/* Generated by software containing ST-Developer
 * from STEP Tools, Inc. (www.steptools.com) 
 */

FILE_DESCRIPTION(
/* description */ (''),
/* implementation_level */ '2;1');

FILE_NAME(
/* name */ 'penutupmm1.step',
/* time_stamp */ '2026-08-04T01:46:01+08:00',
/* author */ (''),
/* organization */ (''),
/* preprocessor_version */ 'ST-DEVELOPER v20.1',
/* originating_system */ 'Autodesk Translation Framework v15.8.0.0',
/* authorisation */ '');

FILE_SCHEMA (('AUTOMOTIVE_DESIGN { 1 0 10303 214 3 1 1 }'));
ENDSEC;

DATA;
#10=MECHANICAL_DESIGN_GEOMETRIC_PRESENTATION_REPRESENTATION('',(#13),#517);
#11=SHAPE_REPRESENTATION_RELATIONSHIP('SRR','None',#524,#12);
#12=ADVANCED_BREP_SHAPE_REPRESENTATION('',(#14),#516);
#13=STYLED_ITEM('',(#533),#14);
#14=MANIFOLD_SOLID_BREP('Body1',#313);
#15=PLANE('',#330);
#16=PLANE('',#334);
#17=PLANE('',#335);
#18=PLANE('',#336);
#19=PLANE('',#337);
#20=PLANE('',#338);
#21=PLANE('',#339);
#22=PLANE('',#340);
#23=PLANE('',#341);
#24=PLANE('',#342);
#25=PLANE('',#343);
#26=PLANE('',#344);
#27=PLANE('',#345);
#28=PLANE('',#346);
#29=FACE_OUTER_BOUND('',#45,.T.);
#30=FACE_OUTER_BOUND('',#46,.T.);
#31=FACE_OUTER_BOUND('',#47,.T.);
#32=FACE_OUTER_BOUND('',#48,.T.);
#33=FACE_OUTER_BOUND('',#49,.T.);
#34=FACE_OUTER_BOUND('',#50,.T.);
#35=FACE_OUTER_BOUND('',#51,.T.);
#36=FACE_OUTER_BOUND('',#52,.T.);
#37=FACE_OUTER_BOUND('',#53,.T.);
#38=FACE_OUTER_BOUND('',#54,.T.);
#39=FACE_OUTER_BOUND('',#55,.T.);
#40=FACE_OUTER_BOUND('',#56,.T.);
#41=FACE_OUTER_BOUND('',#57,.T.);
#42=FACE_OUTER_BOUND('',#58,.T.);
#43=FACE_OUTER_BOUND('',#59,.T.);
#44=FACE_OUTER_BOUND('',#60,.T.);
#45=EDGE_LOOP('',(#211,#212,#213,#214));
#46=EDGE_LOOP('',(#215,#216,#217,#218));
#47=EDGE_LOOP('',(#219,#220,#221,#222));
#48=EDGE_LOOP('',(#223,#224,#225,#226));
#49=EDGE_LOOP('',(#227,#228,#229,#230));
#50=EDGE_LOOP('',(#231,#232,#233,#234));
#51=EDGE_LOOP('',(#235,#236,#237,#238));
#52=EDGE_LOOP('',(#239,#240,#241,#242,#243,#244,#245,#246,#247,#248,#249,
#250,#251,#252));
#53=EDGE_LOOP('',(#253,#254,#255,#256));
#54=EDGE_LOOP('',(#257,#258,#259,#260));
#55=EDGE_LOOP('',(#261,#262,#263,#264));
#56=EDGE_LOOP('',(#265,#266,#267,#268));
#57=EDGE_LOOP('',(#269,#270,#271,#272));
#58=EDGE_LOOP('',(#273,#274,#275,#276,#277,#278,#279,#280,#281,#282,#283,
#284,#285,#286));
#59=EDGE_LOOP('',(#287,#288,#289,#290));
#60=EDGE_LOOP('',(#291,#292,#293,#294));
#61=LINE('',#433,#99);
#62=LINE('',#436,#100);
#63=LINE('',#439,#101);
#64=LINE('',#441,#102);
#65=LINE('',#442,#103);
#66=LINE('',#448,#104);
#67=LINE('',#451,#105);
#68=LINE('',#454,#106);
#69=LINE('',#456,#107);
#70=LINE('',#457,#108);
#71=LINE('',#460,#109);
#72=LINE('',#462,#110);
#73=LINE('',#463,#111);
#74=LINE('',#466,#112);
#75=LINE('',#468,#113);
#76=LINE('',#469,#114);
#77=LINE('',#471,#115);
#78=LINE('',#472,#116);
#79=LINE('',#475,#117);
#80=LINE('',#477,#118);
#81=LINE('',#479,#119);
#82=LINE('',#481,#120);
#83=LINE('',#483,#121);
#84=LINE('',#485,#122);
#85=LINE('',#486,#123);
#86=LINE('',#489,#124);
#87=LINE('',#490,#125);
#88=LINE('',#493,#126);
#89=LINE('',#494,#127);
#90=LINE('',#497,#128);
#91=LINE('',#498,#129);
#92=LINE('',#501,#130);
#93=LINE('',#502,#131);
#94=LINE('',#505,#132);
#95=LINE('',#506,#133);
#96=LINE('',#509,#134);
#97=LINE('',#510,#135);
#98=LINE('',#512,#136);
#99=VECTOR('',#353,1.);
#100=VECTOR('',#356,1.);
#101=VECTOR('',#359,1.);
#102=VECTOR('',#360,1.);
#103=VECTOR('',#361,1.);
#104=VECTOR('',#366,1.);
#105=VECTOR('',#369,1.);
#106=VECTOR('',#372,1.);
#107=VECTOR('',#373,1.);
#108=VECTOR('',#374,1.);
#109=VECTOR('',#377,1.);
#110=VECTOR('',#378,1.);
#111=VECTOR('',#379,1.);
#112=VECTOR('',#382,1.);
#113=VECTOR('',#383,1.);
#114=VECTOR('',#384,1.);
#115=VECTOR('',#387,1.);
#116=VECTOR('',#388,1.);
#117=VECTOR('',#391,1.);
#118=VECTOR('',#392,1.);
#119=VECTOR('',#393,1.);
#120=VECTOR('',#394,1.);
#121=VECTOR('',#395,1.);
#122=VECTOR('',#396,1.);
#123=VECTOR('',#397,1.);
#124=VECTOR('',#400,1.);
#125=VECTOR('',#401,1.);
#126=VECTOR('',#404,1.);
#127=VECTOR('',#405,1.);
#128=VECTOR('',#408,1.);
#129=VECTOR('',#409,1.);
#130=VECTOR('',#412,1.);
#131=VECTOR('',#413,1.);
#132=VECTOR('',#416,1.);
#133=VECTOR('',#417,1.);
#134=VECTOR('',#420,1.);
#135=VECTOR('',#421,1.);
#136=VECTOR('',#424,1.);
#137=CIRCLE('',#328,0.075);
#138=CIRCLE('',#329,0.075);
#139=CIRCLE('',#332,0.075);
#140=CIRCLE('',#333,0.075);
#141=VERTEX_POINT('',#429);
#142=VERTEX_POINT('',#430);
#143=VERTEX_POINT('',#432);
#144=VERTEX_POINT('',#434);
#145=VERTEX_POINT('',#438);
#146=VERTEX_POINT('',#440);
#147=VERTEX_POINT('',#444);
#148=VERTEX_POINT('',#445);
#149=VERTEX_POINT('',#447);
#150=VERTEX_POINT('',#449);
#151=VERTEX_POINT('',#453);
#152=VERTEX_POINT('',#455);
#153=VERTEX_POINT('',#459);
#154=VERTEX_POINT('',#461);
#155=VERTEX_POINT('',#465);
#156=VERTEX_POINT('',#467);
#157=VERTEX_POINT('',#474);
#158=VERTEX_POINT('',#476);
#159=VERTEX_POINT('',#478);
#160=VERTEX_POINT('',#480);
#161=VERTEX_POINT('',#482);
#162=VERTEX_POINT('',#484);
#163=VERTEX_POINT('',#488);
#164=VERTEX_POINT('',#492);
#165=VERTEX_POINT('',#496);
#166=VERTEX_POINT('',#500);
#167=VERTEX_POINT('',#504);
#168=VERTEX_POINT('',#508);
#169=EDGE_CURVE('',#141,#142,#137,.T.);
#170=EDGE_CURVE('',#142,#143,#61,.T.);
#171=EDGE_CURVE('',#143,#144,#138,.T.);
#172=EDGE_CURVE('',#144,#141,#62,.T.);
#173=EDGE_CURVE('',#145,#142,#63,.T.);
#174=EDGE_CURVE('',#146,#145,#64,.T.);
#175=EDGE_CURVE('',#146,#143,#65,.T.);
#176=EDGE_CURVE('',#147,#148,#139,.T.);
#177=EDGE_CURVE('',#148,#149,#66,.T.);
#178=EDGE_CURVE('',#149,#150,#140,.T.);
#179=EDGE_CURVE('',#150,#147,#67,.T.);
#180=EDGE_CURVE('',#148,#151,#68,.T.);
#181=EDGE_CURVE('',#152,#151,#69,.T.);
#182=EDGE_CURVE('',#149,#152,#70,.T.);
#183=EDGE_CURVE('',#144,#153,#71,.T.);
#184=EDGE_CURVE('',#153,#154,#72,.T.);
#185=EDGE_CURVE('',#141,#154,#73,.T.);
#186=EDGE_CURVE('',#153,#155,#74,.T.);
#187=EDGE_CURVE('',#156,#155,#75,.T.);
#188=EDGE_CURVE('',#154,#156,#76,.T.);
#189=EDGE_CURVE('',#152,#145,#77,.T.);
#190=EDGE_CURVE('',#146,#151,#78,.T.);
#191=EDGE_CURVE('',#157,#147,#79,.T.);
#192=EDGE_CURVE('',#158,#157,#80,.T.);
#193=EDGE_CURVE('',#158,#159,#81,.T.);
#194=EDGE_CURVE('',#159,#160,#82,.T.);
#195=EDGE_CURVE('',#161,#160,#83,.T.);
#196=EDGE_CURVE('',#162,#161,#84,.T.);
#197=EDGE_CURVE('',#162,#155,#85,.T.);
#198=EDGE_CURVE('',#163,#150,#86,.T.);
#199=EDGE_CURVE('',#163,#157,#87,.T.);
#200=EDGE_CURVE('',#164,#163,#88,.T.);
#201=EDGE_CURVE('',#158,#164,#89,.T.);
#202=EDGE_CURVE('',#165,#164,#90,.T.);
#203=EDGE_CURVE('',#159,#165,#91,.T.);
#204=EDGE_CURVE('',#166,#162,#92,.T.);
#205=EDGE_CURVE('',#156,#166,#93,.T.);
#206=EDGE_CURVE('',#167,#161,#94,.T.);
#207=EDGE_CURVE('',#166,#167,#95,.T.);
#208=EDGE_CURVE('',#168,#167,#96,.T.);
#209=EDGE_CURVE('',#165,#168,#97,.T.);
#210=EDGE_CURVE('',#160,#168,#98,.T.);
#211=ORIENTED_EDGE('',*,*,#169,.T.);
#212=ORIENTED_EDGE('',*,*,#170,.T.);
#213=ORIENTED_EDGE('',*,*,#171,.T.);
#214=ORIENTED_EDGE('',*,*,#172,.T.);
#215=ORIENTED_EDGE('',*,*,#170,.F.);
#216=ORIENTED_EDGE('',*,*,#173,.F.);
#217=ORIENTED_EDGE('',*,*,#174,.F.);
#218=ORIENTED_EDGE('',*,*,#175,.T.);
#219=ORIENTED_EDGE('',*,*,#176,.T.);
#220=ORIENTED_EDGE('',*,*,#177,.T.);
#221=ORIENTED_EDGE('',*,*,#178,.T.);
#222=ORIENTED_EDGE('',*,*,#179,.T.);
#223=ORIENTED_EDGE('',*,*,#177,.F.);
#224=ORIENTED_EDGE('',*,*,#180,.T.);
#225=ORIENTED_EDGE('',*,*,#181,.F.);
#226=ORIENTED_EDGE('',*,*,#182,.F.);
#227=ORIENTED_EDGE('',*,*,#172,.F.);
#228=ORIENTED_EDGE('',*,*,#183,.T.);
#229=ORIENTED_EDGE('',*,*,#184,.T.);
#230=ORIENTED_EDGE('',*,*,#185,.F.);
#231=ORIENTED_EDGE('',*,*,#184,.F.);
#232=ORIENTED_EDGE('',*,*,#186,.T.);
#233=ORIENTED_EDGE('',*,*,#187,.F.);
#234=ORIENTED_EDGE('',*,*,#188,.F.);
#235=ORIENTED_EDGE('',*,*,#174,.T.);
#236=ORIENTED_EDGE('',*,*,#189,.F.);
#237=ORIENTED_EDGE('',*,*,#181,.T.);
#238=ORIENTED_EDGE('',*,*,#190,.F.);
#239=ORIENTED_EDGE('',*,*,#191,.F.);
#240=ORIENTED_EDGE('',*,*,#192,.F.);
#241=ORIENTED_EDGE('',*,*,#193,.T.);
#242=ORIENTED_EDGE('',*,*,#194,.T.);
#243=ORIENTED_EDGE('',*,*,#195,.F.);
#244=ORIENTED_EDGE('',*,*,#196,.F.);
#245=ORIENTED_EDGE('',*,*,#197,.T.);
#246=ORIENTED_EDGE('',*,*,#186,.F.);
#247=ORIENTED_EDGE('',*,*,#183,.F.);
#248=ORIENTED_EDGE('',*,*,#171,.F.);
#249=ORIENTED_EDGE('',*,*,#175,.F.);
#250=ORIENTED_EDGE('',*,*,#190,.T.);
#251=ORIENTED_EDGE('',*,*,#180,.F.);
#252=ORIENTED_EDGE('',*,*,#176,.F.);
#253=ORIENTED_EDGE('',*,*,#179,.F.);
#254=ORIENTED_EDGE('',*,*,#198,.F.);
#255=ORIENTED_EDGE('',*,*,#199,.T.);
#256=ORIENTED_EDGE('',*,*,#191,.T.);
#257=ORIENTED_EDGE('',*,*,#199,.F.);
#258=ORIENTED_EDGE('',*,*,#200,.F.);
#259=ORIENTED_EDGE('',*,*,#201,.F.);
#260=ORIENTED_EDGE('',*,*,#192,.T.);
#261=ORIENTED_EDGE('',*,*,#201,.T.);
#262=ORIENTED_EDGE('',*,*,#202,.F.);
#263=ORIENTED_EDGE('',*,*,#203,.F.);
#264=ORIENTED_EDGE('',*,*,#193,.F.);
#265=ORIENTED_EDGE('',*,*,#187,.T.);
#266=ORIENTED_EDGE('',*,*,#197,.F.);
#267=ORIENTED_EDGE('',*,*,#204,.F.);
#268=ORIENTED_EDGE('',*,*,#205,.F.);
#269=ORIENTED_EDGE('',*,*,#204,.T.);
#270=ORIENTED_EDGE('',*,*,#196,.T.);
#271=ORIENTED_EDGE('',*,*,#206,.F.);
#272=ORIENTED_EDGE('',*,*,#207,.F.);
#273=ORIENTED_EDGE('',*,*,#182,.T.);
#274=ORIENTED_EDGE('',*,*,#189,.T.);
#275=ORIENTED_EDGE('',*,*,#173,.T.);
#276=ORIENTED_EDGE('',*,*,#169,.F.);
#277=ORIENTED_EDGE('',*,*,#185,.T.);
#278=ORIENTED_EDGE('',*,*,#188,.T.);
#279=ORIENTED_EDGE('',*,*,#205,.T.);
#280=ORIENTED_EDGE('',*,*,#207,.T.);
#281=ORIENTED_EDGE('',*,*,#208,.F.);
#282=ORIENTED_EDGE('',*,*,#209,.F.);
#283=ORIENTED_EDGE('',*,*,#202,.T.);
#284=ORIENTED_EDGE('',*,*,#200,.T.);
#285=ORIENTED_EDGE('',*,*,#198,.T.);
#286=ORIENTED_EDGE('',*,*,#178,.F.);
#287=ORIENTED_EDGE('',*,*,#203,.T.);
#288=ORIENTED_EDGE('',*,*,#209,.T.);
#289=ORIENTED_EDGE('',*,*,#210,.F.);
#290=ORIENTED_EDGE('',*,*,#194,.F.);
#291=ORIENTED_EDGE('',*,*,#195,.T.);
#292=ORIENTED_EDGE('',*,*,#210,.T.);
#293=ORIENTED_EDGE('',*,*,#208,.T.);
#294=ORIENTED_EDGE('',*,*,#206,.T.);
#295=CYLINDRICAL_SURFACE('',#327,0.075);
#296=CYLINDRICAL_SURFACE('',#331,0.075);
#297=ADVANCED_FACE('',(#29),#295,.F.);
#298=ADVANCED_FACE('',(#30),#15,.F.);
#299=ADVANCED_FACE('',(#31),#296,.F.);
#300=ADVANCED_FACE('',(#32),#16,.F.);
#301=ADVANCED_FACE('',(#33),#17,.F.);
#302=ADVANCED_FACE('',(#34),#18,.F.);
#303=ADVANCED_FACE('',(#35),#19,.F.);
#304=ADVANCED_FACE('',(#36),#20,.T.);
#305=ADVANCED_FACE('',(#37),#21,.F.);
#306=ADVANCED_FACE('',(#38),#22,.F.);
#307=ADVANCED_FACE('',(#39),#23,.F.);
#308=ADVANCED_FACE('',(#40),#24,.F.);
#309=ADVANCED_FACE('',(#41),#25,.T.);
#310=ADVANCED_FACE('',(#42),#26,.T.);
#311=ADVANCED_FACE('',(#43),#27,.T.);
#312=ADVANCED_FACE('',(#44),#28,.T.);
#313=CLOSED_SHELL('',(#297,#298,#299,#300,#301,#302,#303,#304,#305,#306,
#307,#308,#309,#310,#311,#312));
#314=DERIVED_UNIT_ELEMENT(#316,1.);
#315=DERIVED_UNIT_ELEMENT(#519,-3.);
#316=(
MASS_UNIT()
NAMED_UNIT(*)
SI_UNIT(.KILO.,.GRAM.)
);
#317=DERIVED_UNIT((#314,#315));
#318=MEASURE_REPRESENTATION_ITEM('density measure',
POSITIVE_RATIO_MEASURE(7850.),#317);
#319=PROPERTY_DEFINITION_REPRESENTATION(#324,#321);
#320=PROPERTY_DEFINITION_REPRESENTATION(#325,#322);
#321=REPRESENTATION('material name',(#323),#516);
#322=REPRESENTATION('density',(#318),#516);
#323=DESCRIPTIVE_REPRESENTATION_ITEM('Steel','Steel');
#324=PROPERTY_DEFINITION('material property','material name',#526);
#325=PROPERTY_DEFINITION('material property','density of part',#526);
#326=AXIS2_PLACEMENT_3D('',#427,#347,#348);
#327=AXIS2_PLACEMENT_3D('',#428,#349,#350);
#328=AXIS2_PLACEMENT_3D('',#431,#351,#352);
#329=AXIS2_PLACEMENT_3D('',#435,#354,#355);
#330=AXIS2_PLACEMENT_3D('',#437,#357,#358);
#331=AXIS2_PLACEMENT_3D('',#443,#362,#363);
#332=AXIS2_PLACEMENT_3D('',#446,#364,#365);
#333=AXIS2_PLACEMENT_3D('',#450,#367,#368);
#334=AXIS2_PLACEMENT_3D('',#452,#370,#371);
#335=AXIS2_PLACEMENT_3D('',#458,#375,#376);
#336=AXIS2_PLACEMENT_3D('',#464,#380,#381);
#337=AXIS2_PLACEMENT_3D('',#470,#385,#386);
#338=AXIS2_PLACEMENT_3D('',#473,#389,#390);
#339=AXIS2_PLACEMENT_3D('',#487,#398,#399);
#340=AXIS2_PLACEMENT_3D('',#491,#402,#403);
#341=AXIS2_PLACEMENT_3D('',#495,#406,#407);
#342=AXIS2_PLACEMENT_3D('',#499,#410,#411);
#343=AXIS2_PLACEMENT_3D('',#503,#414,#415);
#344=AXIS2_PLACEMENT_3D('',#507,#418,#419);
#345=AXIS2_PLACEMENT_3D('',#511,#422,#423);
#346=AXIS2_PLACEMENT_3D('',#513,#425,#426);
#347=DIRECTION('axis',(0.,0.,1.));
#348=DIRECTION('refdir',(1.,0.,0.));
#349=DIRECTION('center_axis',(1.,0.,0.));
#350=DIRECTION('ref_axis',(0.,-0.642787609686575,0.766044443118948));
#351=DIRECTION('center_axis',(-1.,0.,0.));
#352=DIRECTION('ref_axis',(0.,-0.642787609686575,0.766044443118948));
#353=DIRECTION('',(1.,0.,0.));
#354=DIRECTION('center_axis',(1.,0.,0.));
#355=DIRECTION('ref_axis',(0.,-0.642787609686575,0.766044443118948));
#356=DIRECTION('',(-1.,0.,0.));
#357=DIRECTION('center_axis',(0.,0.173648177666929,0.984807753012208));
#358=DIRECTION('ref_axis',(-1.,0.,0.));
#359=DIRECTION('',(0.,-0.984807753012208,0.173648177666929));
#360=DIRECTION('',(-1.,0.,0.));
#361=DIRECTION('',(0.,-0.984807753012208,0.173648177666929));
#362=DIRECTION('center_axis',(-1.,0.,0.));
#363=DIRECTION('ref_axis',(0.,-0.642787609686575,-0.766044443118948));
#364=DIRECTION('center_axis',(1.,0.,0.));
#365=DIRECTION('ref_axis',(0.,-0.642787609686575,-0.766044443118948));
#366=DIRECTION('',(-1.,0.,0.));
#367=DIRECTION('center_axis',(-1.,0.,0.));
#368=DIRECTION('ref_axis',(0.,-0.642787609686575,-0.766044443118948));
#369=DIRECTION('',(1.,0.,0.));
#370=DIRECTION('center_axis',(0.,0.173648177666929,-0.984807753012208));
#371=DIRECTION('ref_axis',(1.,0.,0.));
#372=DIRECTION('',(0.,0.984807753012208,0.173648177666929));
#373=DIRECTION('',(1.,0.,0.));
#374=DIRECTION('',(0.,0.984807753012208,0.173648177666929));
#375=DIRECTION('center_axis',(0.,-1.,0.));
#376=DIRECTION('ref_axis',(1.,0.,0.));
#377=DIRECTION('',(0.,0.,-1.));
#378=DIRECTION('',(-1.,0.,0.));
#379=DIRECTION('',(0.,0.,-1.));
#380=DIRECTION('center_axis',(0.,0.173648177666929,-0.984807753012208));
#381=DIRECTION('ref_axis',(1.,0.,0.));
#382=DIRECTION('',(0.,0.984807753012208,0.173648177666929));
#383=DIRECTION('',(1.,0.,0.));
#384=DIRECTION('',(0.,0.984807753012208,0.173648177666929));
#385=DIRECTION('center_axis',(0.,-1.,0.));
#386=DIRECTION('ref_axis',(0.,0.,-1.));
#387=DIRECTION('',(0.,0.,-1.));
#388=DIRECTION('',(0.,0.,1.));
#389=DIRECTION('center_axis',(1.,0.,0.));
#390=DIRECTION('ref_axis',(0.,0.,1.));
#391=DIRECTION('',(0.,0.,-1.));
#392=DIRECTION('',(0.,-0.984807753012208,0.173648177666929));
#393=DIRECTION('',(0.,0.,1.));
#394=DIRECTION('',(0.,-1.,0.));
#395=DIRECTION('',(0.,0.,1.));
#396=DIRECTION('',(0.,-1.,0.));
#397=DIRECTION('',(0.,0.,1.));
#398=DIRECTION('center_axis',(0.,-1.,0.));
#399=DIRECTION('ref_axis',(1.,0.,0.));
#400=DIRECTION('',(0.,0.,-1.));
#401=DIRECTION('',(1.,0.,0.));
#402=DIRECTION('center_axis',(0.,0.173648177666929,0.984807753012208));
#403=DIRECTION('ref_axis',(-1.,0.,0.));
#404=DIRECTION('',(0.,-0.984807753012208,0.173648177666929));
#405=DIRECTION('',(-1.,0.,0.));
#406=DIRECTION('center_axis',(0.,-1.,0.));
#407=DIRECTION('ref_axis',(0.,0.,-1.));
#408=DIRECTION('',(0.,0.,-1.));
#409=DIRECTION('',(-1.,0.,0.));
#410=DIRECTION('center_axis',(0.,-1.,0.));
#411=DIRECTION('ref_axis',(0.,0.,-1.));
#412=DIRECTION('',(1.,0.,0.));
#413=DIRECTION('',(0.,0.,-1.));
#414=DIRECTION('center_axis',(0.,0.,-1.));
#415=DIRECTION('ref_axis',(1.,0.,0.));
#416=DIRECTION('',(1.,0.,0.));
#417=DIRECTION('',(0.,-1.,0.));
#418=DIRECTION('center_axis',(-1.,0.,0.));
#419=DIRECTION('ref_axis',(0.,0.,-1.));
#420=DIRECTION('',(0.,0.,-1.));
#421=DIRECTION('',(0.,-1.,0.));
#422=DIRECTION('center_axis',(0.,0.,1.));
#423=DIRECTION('ref_axis',(-1.,0.,0.));
#424=DIRECTION('',(-1.,0.,0.));
#425=DIRECTION('center_axis',(0.,-1.,0.));
#426=DIRECTION('ref_axis',(0.,0.,-1.));
#427=CARTESIAN_POINT('',(0.,0.,0.));
#428=CARTESIAN_POINT('Origin',(3.39933176009909,4.8156222949986,29.254700334511));
#429=CARTESIAN_POINT('',(3.09999977946281,4.7406222949986,29.254700334511));
#430=CARTESIAN_POINT('',(3.09999977946281,4.82864590832362,29.3285609159869));
#431=CARTESIAN_POINT('Origin',(3.09999977946281,4.8156222949986,29.254700334511));
#432=CARTESIAN_POINT('',(4.39999979883432,4.82864590832362,29.3285609159869));
#433=CARTESIAN_POINT('',(3.39933176009909,4.82864590832362,29.3285609159869));
#434=CARTESIAN_POINT('',(4.39999979883432,4.7406222949986,29.254700334511));
#435=CARTESIAN_POINT('Origin',(4.39999979883432,4.8156222949986,29.254700334511));
#436=CARTESIAN_POINT('',(3.39933176009909,4.7406222949986,29.254700334511));
#437=CARTESIAN_POINT('Origin',(3.09999977946281,4.9906222949986,29.3000001087785));
#438=CARTESIAN_POINT('',(3.09999977946281,4.9866046335679,29.3007085308881));
#439=CARTESIAN_POINT('',(3.09999977946281,4.98586333119744,29.3008392424968));
#440=CARTESIAN_POINT('',(4.39999979883432,4.9866046335679,29.3007085308881));
#441=CARTESIAN_POINT('',(3.42499978430569,4.9866046335679,29.3007085308881));
#442=CARTESIAN_POINT('',(4.39999979883432,5.08846937572408,29.282747028463));
#443=CARTESIAN_POINT('Origin',(3.99933176978484,4.8156222949986,29.4452999060306));
#444=CARTESIAN_POINT('',(4.39999979883432,4.7406222949986,29.4452999060306));
#445=CARTESIAN_POINT('',(4.39999979883432,4.82864590832362,29.3714393245547));
#446=CARTESIAN_POINT('Origin',(4.39999979883432,4.8156222949986,29.4452999060306));
#447=CARTESIAN_POINT('',(3.09999977946281,4.82864590832362,29.3714393245547));
#448=CARTESIAN_POINT('',(3.99933176978484,4.82864590832362,29.3714393245547));
#449=CARTESIAN_POINT('',(3.09999977946281,4.7406222949986,29.4452999060306));
#450=CARTESIAN_POINT('Origin',(3.09999977946281,4.8156222949986,29.4452999060306));
#451=CARTESIAN_POINT('',(3.99933176978484,4.7406222949986,29.4452999060306));
#452=CARTESIAN_POINT('Origin',(4.29999979883432,4.9906222949986,29.4000001317632));
#453=CARTESIAN_POINT('',(4.39999979883432,4.9866046335679,29.3992917096536));
#454=CARTESIAN_POINT('',(4.39999979883432,4.97731282564898,29.3976533132179));
#455=CARTESIAN_POINT('',(3.09999977946281,4.9866046335679,29.3992917096536));
#456=CARTESIAN_POINT('',(4.02499979399145,4.9866046335679,29.3992917096536));
#457=CARTESIAN_POINT('',(3.09999977946281,5.07991887017563,29.4157455272518));
#458=CARTESIAN_POINT('Origin',(3.69866374073536,4.7406222949986,29.2000001202708));
#459=CARTESIAN_POINT('',(4.39999979883432,4.7406222949986,29.0559183865861));
#460=CARTESIAN_POINT('',(4.39999979883432,4.7406222949986,28.9500001100543));
#461=CARTESIAN_POINT('',(3.09999977946281,4.7406222949986,29.0559183865861));
#462=CARTESIAN_POINT('',(3.0973276826364,4.7406222949986,29.0559183865861));
#463=CARTESIAN_POINT('',(3.09999977946281,4.7406222949986,29.550000118995));
#464=CARTESIAN_POINT('Origin',(4.29999979883432,4.9906222949986,29.1000001317632));
#465=CARTESIAN_POINT('',(4.39999979883432,4.9866046335679,29.0992917096536));
#466=CARTESIAN_POINT('',(4.39999979883432,5.00296433639841,29.102176366659));
#467=CARTESIAN_POINT('',(3.09999977946281,4.9866046335679,29.0992917096536));
#468=CARTESIAN_POINT('',(4.02499979399145,4.9866046335679,29.0992917096536));
#469=CARTESIAN_POINT('',(3.09999977946281,5.10557038092506,29.1202685806928));
#470=CARTESIAN_POINT('Origin',(3.74999978914857,4.9866046335679,29.3000001087785));
#471=CARTESIAN_POINT('',(3.09999977946281,4.9866046335679,29.6000001132488));
#472=CARTESIAN_POINT('',(4.39999979883432,4.9866046335679,29.0000001043081));
#473=CARTESIAN_POINT('Origin',(4.39999979883432,5.0866046335679,28.7000000998378));
#474=CARTESIAN_POINT('',(4.39999979883432,4.7406222949986,29.6440818539556));
#475=CARTESIAN_POINT('',(4.39999979883432,4.7406222949986,29.1000001100543));
#476=CARTESIAN_POINT('',(4.39999979883432,4.9866046335679,29.6007085308881));
#477=CARTESIAN_POINT('',(4.39999979883432,5.11412088647351,29.578223975022));
#478=CARTESIAN_POINT('',(4.39999979883432,4.9866046335679,29.9000001177192));
#479=CARTESIAN_POINT('',(4.39999979883432,4.9866046335679,29.0000001043081));
#480=CARTESIAN_POINT('',(4.39999979883432,4.5866046335679,29.9000001177192));
#481=CARTESIAN_POINT('',(4.39999979883432,5.0866046335679,29.9000001177192));
#482=CARTESIAN_POINT('',(4.39999979883432,4.5866046335679,28.7000000998378));
#483=CARTESIAN_POINT('',(4.39999979883432,4.5866046335679,29.1000001057982));
#484=CARTESIAN_POINT('',(4.39999979883432,4.9866046335679,28.7000000998378));
#485=CARTESIAN_POINT('',(4.39999979883432,5.0866046335679,28.7000000998378));
#486=CARTESIAN_POINT('',(4.39999979883432,4.9866046335679,29.0000001043081));
#487=CARTESIAN_POINT('Origin',(3.69866374073536,4.7406222949986,29.5000001202708));
#488=CARTESIAN_POINT('',(3.09999977946281,4.7406222949986,29.6440818539556));
#489=CARTESIAN_POINT('',(3.09999977946281,4.7406222949986,29.700000118995));
#490=CARTESIAN_POINT('',(4.29999979883432,4.7406222949986,29.6440818539556));
#491=CARTESIAN_POINT('Origin',(3.09999977946281,4.9906222949986,29.6000001087785));
#492=CARTESIAN_POINT('',(3.09999977946281,4.9866046335679,29.6007085308881));
#493=CARTESIAN_POINT('',(3.09999977946281,5.01151484194686,29.5963161890558));
#494=CARTESIAN_POINT('',(3.42499978430569,4.9866046335679,29.6007085308881));
#495=CARTESIAN_POINT('Origin',(3.74999978914857,4.9866046335679,29.3000001087785));
#496=CARTESIAN_POINT('',(3.09999977946281,4.9866046335679,29.9000001177192));
#497=CARTESIAN_POINT('',(3.09999977946281,4.9866046335679,29.6000001132488));
#498=CARTESIAN_POINT('',(4.07499979399144,4.9866046335679,29.9000001177192));
#499=CARTESIAN_POINT('Origin',(3.74999978914857,4.9866046335679,29.3000001087785));
#500=CARTESIAN_POINT('',(3.09999977946281,4.9866046335679,28.7000000998378));
#501=CARTESIAN_POINT('',(3.42499978430569,4.9866046335679,28.7000000998378));
#502=CARTESIAN_POINT('',(3.09999977946281,4.9866046335679,29.6000001132488));
#503=CARTESIAN_POINT('Origin',(3.09999977946281,5.0866046335679,28.7000000998378));
#504=CARTESIAN_POINT('',(3.09999977946281,4.5866046335679,28.7000000998378));
#505=CARTESIAN_POINT('',(3.09999977946281,4.5866046335679,28.7000000998378));
#506=CARTESIAN_POINT('',(3.09999977946281,5.0866046335679,28.7000000998378));
#507=CARTESIAN_POINT('Origin',(3.09999977946281,5.0866046335679,29.9000001177192));
#508=CARTESIAN_POINT('',(3.09999977946281,4.5866046335679,29.9000001177192));
#509=CARTESIAN_POINT('',(3.09999977946281,4.5866046335679,29.9000001177192));
#510=CARTESIAN_POINT('',(3.09999977946281,5.0866046335679,29.9000001177192));
#511=CARTESIAN_POINT('Origin',(4.39999979883432,5.0866046335679,29.9000001177192));
#512=CARTESIAN_POINT('',(4.39999979883432,4.5866046335679,29.9000001177192));
#513=CARTESIAN_POINT('Origin',(3.74999978914857,4.5866046335679,29.3000001087785));
#514=UNCERTAINTY_MEASURE_WITH_UNIT(LENGTH_MEASURE(0.001),#518,
'DISTANCE_ACCURACY_VALUE',
'Maximum model space distance between geometric entities at asserted c
onnectivities');
#515=UNCERTAINTY_MEASURE_WITH_UNIT(LENGTH_MEASURE(0.001),#518,
'DISTANCE_ACCURACY_VALUE',
'Maximum model space distance between geometric entities at asserted c
onnectivities');
#516=(
GEOMETRIC_REPRESENTATION_CONTEXT(3)
GLOBAL_UNCERTAINTY_ASSIGNED_CONTEXT((#514))
GLOBAL_UNIT_ASSIGNED_CONTEXT((#518,#520,#521))
REPRESENTATION_CONTEXT('','3D')
);
#517=(
GEOMETRIC_REPRESENTATION_CONTEXT(3)
GLOBAL_UNCERTAINTY_ASSIGNED_CONTEXT((#515))
GLOBAL_UNIT_ASSIGNED_CONTEXT((#518,#520,#521))
REPRESENTATION_CONTEXT('','3D')
);
#518=(
LENGTH_UNIT()
NAMED_UNIT(*)
SI_UNIT(.CENTI.,.METRE.)
);
#519=(
LENGTH_UNIT()
NAMED_UNIT(*)
SI_UNIT($,.METRE.)
);
#520=(
NAMED_UNIT(*)
PLANE_ANGLE_UNIT()
SI_UNIT($,.RADIAN.)
);
#521=(
NAMED_UNIT(*)
SI_UNIT($,.STERADIAN.)
SOLID_ANGLE_UNIT()
);
#522=SHAPE_DEFINITION_REPRESENTATION(#523,#524);
#523=PRODUCT_DEFINITION_SHAPE('',$,#526);
#524=SHAPE_REPRESENTATION('',(#326),#516);
#525=PRODUCT_DEFINITION_CONTEXT('part definition',#530,'design');
#526=PRODUCT_DEFINITION('2026-08-04-01-46-01-234','penutupmm1',#527,#525);
#527=PRODUCT_DEFINITION_FORMATION('',$,#532);
#528=PRODUCT_RELATED_PRODUCT_CATEGORY('penutupmm1','penutupmm1',(#532));
#529=APPLICATION_PROTOCOL_DEFINITION('international standard',
'automotive_design',2009,#530);
#530=APPLICATION_CONTEXT(
'Core Data for Automotive Mechanical Design Process');
#531=PRODUCT_CONTEXT('part definition',#530,'mechanical');
#532=PRODUCT('2026-08-04-01-46-01-234','penutupmm1',$,(#531));
#533=PRESENTATION_STYLE_ASSIGNMENT((#534));
#534=SURFACE_STYLE_USAGE(.BOTH.,#535);
#535=SURFACE_SIDE_STYLE('',(#536));
#536=SURFACE_STYLE_FILL_AREA(#537);
#537=FILL_AREA_STYLE('Steel - Satin',(#538));
#538=FILL_AREA_STYLE_COLOUR('Steel - Satin',#539);
#539=COLOUR_RGB('Steel - Satin',0.627450980392157,0.627450980392157,0.627450980392157);
ENDSEC;
END-ISO-10303-21;
